<svg width="47" height="50" viewBox="0 0 47 50" fill="none" xmlns="http://www.w3.org/2000/svg">
<path d="M13.7149 12.0214C18.5541 10.5182 21.9969 9.11526 25.0687 8.68208C27.8245 8.29348 31.155 9.0005 33.7128 9.61955C36.1918 10.2195 38.0081 13.0914 39.3004 15.2403C41.1633 18.3382 41.619 21.8712 42.3722 23.806C43.1009 25.6778 42.7585 28.0634 42.1128 30.6171C41.1316 34.4975 40.229 36.2597 39.3101 37.581C38.757 38.3763 37.7495 39.064 36.8347 39.7897C36.1314 40.3477 34.1532 42.1253 31.1113 44.2257C29.5095 45.1527 28.5899 45.5842 27.3025 46.095C26.4951 46.3391 25.375 46.5524 24.2209 46.7722" stroke="#EDEDED" stroke-width="4" stroke-linecap="round"/>
<path d="M15.3312 2.00012C15.8646 7.654 16.1393 11.8467 16.0593 13.9997C15.9795 16.1492 15.7611 17.617 15.8694 18.9666C16.0341 21.0192 16.9475 23.3856 16.7875 23.978C16.7168 24.2399 16.3074 24.2504 15.8759 24.0645C15.4443 23.8786 14.911 23.4519 13.0627 22.192C11.2144 20.9321 8.06746 18.8519 6.07292 17.6469C3.40984 16.038 2.24224 15.8471 2.05071 15.553C1.51689 14.7331 5.29062 12.1522 8.41335 8.38377C10.7577 5.55465 11.5555 4.53775 12.4453 4.07547C12.6727 3.9573 12.9552 3.88798 13.2526 3.67301C13.55 3.45804 13.87 3.13801 14.1149 4.43995C14.9014 8.62151 14.7913 12.1781 14.9796 13.3855C15.4854 16.6283 15.7611 19.1202 15.6819 20.7179C15.6671 21.017 15.6545 21.2828 15.4944 21.4202C14.7156 22.0889 12.9714 20.8626 9.79369 18.9254C7.74212 17.6747 6.76794 16.8735 5.87815 15.9045C3.9961 13.8549 11.4488 10.9481 12.0937 10.0348C12.4312 9.55697 12.7386 9.01494 12.8501 10.127C13.5926 17.5295 12.4218 19.4515 12.3151 19.9388C11.9056 21.8095 11.187 14.9986 9.73308 12.246C9.44831 11.7068 9.40577 11.3812 9.51164 10.923C10.0389 8.64092 11.9353 7.98212 12.1778 7.84635C12.2602 8.08395 11.0334 10.3306 9.14797 13.5083C8.48932 14.6591 8.43598 14.8725 8.38103 15.0923" stroke="#EDEDED" stroke-width="4" stroke-linecap="round"/>
<path d="M8.38105 16.3854L7.89615 16.547" stroke="#EDEDED" stroke-width="4" stroke-linecap="round"/>
<path d="M24.0221 46.1903C28.4102 44.455 29.1801 44.0686 33.1001 40.2239C35.0212 38.3397 36.512 35.8742 36.9498 34.7127C37.581 33.0383 38.7321 30.5713 39.1692 29.0445C39.443 28.0882 39.1721 26.5161 39.0976 24.5362C39.0608 23.5597 39.2184 22.0324 39.2669 20.698C39.3147 19.3833 37.8233 18.2637 37.0027 17.2246C36.0788 16.0547 35.5539 15.126 34.6631 14.3771C33.8978 13.7336 32.807 13.1954 31.8648 13.0239C29.5736 12.6068 24.9975 13.0941 23.7362 13.4566C22.729 13.7461 21.0899 14.4892 19.7345 15.5986C18.1641 16.8839 17.2213 18.3028 17.0759 18.3795C16.0797 18.9048 17.5079 16.1377 18.4175 15.2505C20.38 13.3364 22.6168 12.4688 23.7724 12.3733C26.8316 12.1205 30.2916 11.8422 29.7453 11.7698C25.271 11.1772 23.8831 12.081 22.1746 12.7069C19.9494 13.2822 18.2836 13.7222 17.3487 13.8669C16.6525 13.9161 15.5063 13.9161 14.3253 13.9161" stroke="#EDEDED" stroke-width="4" stroke-linecap="round"/>
<path d="M31.5479 10.5874C33.7029 11.0172 37.3804 12.081 38.4666 12.7793C39.5026 13.4453 40.0347 14.3937 41.2642 15.5762C42.084 16.3646 42.6398 17.1464 43.2448 17.7008C43.858 18.2627 43.896 19.41 44.2347 20.7133C44.5398 21.8873 44.4286 22.6924 44.2607 23.4652C44.0707 24.3403 44.2347 25.4885 44.548 26.5277C44.9065 27.7167 44.527 29.2978 44.2607 30.4831C43.9759 31.7508 43.2737 32.4847 42.6941 33.2105C42.0668 33.996 41.537 34.8958 40.9342 35.9342C39.8936 37.7268 38.9348 38.6587 38.0635 39.2897C37.1228 39.971 36.0402 40.737 35.6495 41.3159C35.2142 41.9608 33.8693 42.1843 33.0227 42.7386C31.6778 43.6191 30.5377 44.1613 29.7424 44.5484C28.4417 45.1816 27.2119 45.6085 26.1242 46.0681C25.2386 46.4422 24.1234 46.8156 23.1812 47.1542C22.4252 47.426 21.6616 47.3482 21.7043 47.3482C24.503 47.3482 25.2725 46.8214 27.1742 45.6643C28.4102 44.7923 29.2757 44.2163 30.5008 43.112C31.2483 42.3898 32.2513 41.3391 33.7188 39.9671" stroke="#EDEDED" stroke-width="4" stroke-linecap="round"/>
</svg>
