<svg width="22" height="14" viewBox="0 0 22 14" fill="none" xmlns="http://www.w3.org/2000/svg">
<path d="M19.279 12.1945C19.2183 12.0891 19.1878 11.574 19.2635 11.1919C19.3318 10.8475 19.3849 10.4771 19.4613 9.8717C19.6809 8.13185 19.6285 7.72503 19.7198 7.08879C19.9881 5.21782 19.8566 4.83604 19.8947 4.50024C19.976 3.78352 20.0692 2.84314 20.0624 2.49319C20.0496 1.8382 20.009 1.47438 19.8954 1.23006C19.8679 1.17093 19.8721 1.09387 19.7442 1.04756C19.3786 0.915259 18.5545 1.16641 17.7031 1.47803C17.1082 1.6958 16.6802 2.06477 16.0357 2.41312C14.5367 3.22342 14.3989 3.58592 13.7914 3.92719C13.1687 4.27702 12.8623 4.28535 12.6497 4.37683C12.5637 4.41381 12.4973 4.34786 12.4663 4.21167C12.3135 3.54106 12.344 3.01195 12.2304 2.55387C12.1305 2.15109 12.1159 1.67376 12.0707 1.14907C12.0549 0.965727 11.9352 0.970678 11.7531 1.06102C10.8782 1.4952 10.6111 1.73034 9.94729 2.15306C9.38169 2.51322 8.31984 3.1178 7.58117 3.51862C6.47006 4.12153 5.6713 4.36109 5.03323 4.55842C4.34775 4.77041 3.66516 5.30234 3.08412 5.5551C2.29357 5.89901 2.04911 6.04968 1.78289 6.20936C1.4483 6.41006 1.15166 6.41468 1.02209 6.51346C0.852724 6.64257 1.69506 6.91473 2.25899 7.25076C2.64703 7.48198 3.09576 7.73781 3.55155 8.07908C3.82758 8.28576 4.13008 8.46735 4.85483 8.91311C5.43447 9.26961 6.48297 9.82562 7.07838 10.1806C7.81651 10.6206 8.1743 10.8855 8.59975 11.0828C9.32806 11.4206 10.4542 11.9946 10.8828 12.2394C11.1963 12.4184 11.4762 12.5586 11.7723 12.7034C11.8676 12.75 11.9918 12.7867 12.0388 12.7723C12.2866 12.6965 11.979 11.6388 12.1152 11.0173C12.2314 10.4871 12.2828 10.1277 12.412 9.80052C12.567 9.40778 12.5265 9.10839 12.5644 8.86475C12.5738 8.80385 12.5721 8.74339 12.6323 8.71236C12.9705 8.53816 13.3459 8.87753 14.211 9.27287C14.9312 9.60203 15.4282 9.91139 15.9689 10.2009C16.8196 10.6564 17.2396 11.0219 18.0818 11.5537C18.3647 11.7519 18.6384 11.9349 18.9724 12.1096C19.1257 12.179 19.2462 12.2091 19.5071 12.3314" stroke="#D8D8D8" stroke-width="2" stroke-linecap="round"/>
<path d="M2.47314 6.6051C2.50819 6.62263 2.83292 6.71052 3.31949 6.84752C3.55276 6.91321 3.82491 7.10826 4.65214 7.6097C5.24816 7.97099 6.18034 8.58429 6.69837 8.91327C7.28225 9.28407 7.41129 9.37475 7.60485 9.52901C7.93894 9.79527 8.31353 9.95862 8.7138 10.236C9.00218 10.4358 9.49084 10.7148 9.79168 10.8944C10.4449 11.2845 10.9066 11.428 11.1108 11.4555C11.3408 11.4864 11.2523 10.9872 11.3545 10.5547C11.5118 9.88916 11.4387 9.64212 11.4565 9.41165C11.4752 9.16881 11.5534 8.9608 11.598 8.4441C11.6604 7.7219 11.8367 7.52619 11.9206 7.4245C12.1909 7.09685 13.1715 7.38361 13.3722 7.51624C13.623 7.6819 14.0217 7.9497 14.2438 8.11352C14.5083 8.30864 14.8012 8.52482 15.1414 8.75051C15.5365 9.01272 15.977 9.25022 16.2616 9.46316C16.5039 9.64439 17.046 10.0271 17.4651 10.326C17.8206 10.5795 18.0576 10.8078 18.293 10.9769C18.3765 11.0369 18.466 11.0568 18.5191 11.0571C18.8779 11.0589 18.7315 10.1551 18.7847 9.96022C18.8328 9.78417 18.9088 9.64159 18.9881 9.47777C19.071 9.30651 19.1032 9.0755 19.1256 8.61164C19.131 8.4999 19.1388 8.42976 19.1521 8.10012C19.1653 7.77047 19.1829 7.18341 19.1875 6.85469C19.1948 6.34026 19.1393 6.04008 19.1566 5.81372C19.1727 5.60168 19.0947 5.18298 19.1652 4.83594C19.255 4.39403 19.1659 3.67695 19.1347 3.29672C19.0879 2.72733 19.0506 2.46405 19.0286 2.32611C19.0127 2.22662 18.4001 2.49671 17.6309 2.78838C17.1507 2.97047 16.9358 3.10873 16.7859 3.20565C16.3466 3.48965 15.9807 3.74492 15.7149 3.92269C15.508 4.06105 15.1233 4.24967 14.4229 4.50112C13.9833 4.65893 13.3457 4.79638 12.8498 4.98278C11.9823 5.30887 11.5375 5.63994 11.3604 5.68879C11.2624 5.71583 11.3681 4.92064 11.3196 4.47722C11.2911 4.21588 11.1206 3.80174 11.1334 3.45975C11.1416 3.23809 11.2619 3.09227 11.2839 2.893C11.3059 2.69373 11.324 2.4991 11.3193 2.31324C11.3182 2.26843 11.3325 2.23358 11.3239 2.24181C11.3152 2.25004 11.2889 2.30261 10.8154 2.5619C10.3418 2.82118 9.42181 3.28557 8.85585 3.55985C8.2899 3.83414 8.10589 3.90423 7.91033 4.00168C7.50398 4.20417 7.22675 4.38323 7.05031 4.49767C6.80492 4.65684 6.65137 4.86117 6.51888 4.94494C6.38435 5.02999 6.07811 5.27591 5.62713 5.5324C5.18425 5.78428 4.5134 6.0815 4.16424 6.16686C4.06261 6.19171 3.95183 6.23338 3.88518 6.25528C3.80828 6.28056 4.06547 6.40118 4.30324 6.48934C4.46034 6.54758 4.69873 6.61254 5.41644 6.97723C6.13414 7.34192 7.32579 7.99909 8.10615 8.46029C8.88652 8.9215 9.21948 9.16684 9.44796 9.3239C9.95601 9.67312 10.1546 9.84392 10.2747 9.93287C10.3331 9.97615 10.3325 9.77409 10.3544 9.62447C10.395 9.34731 10.4741 8.76883 10.4961 8.07914C10.5092 7.66889 10.5099 7.23651 10.4568 6.75008C10.4141 6.35931 10.4122 5.95299 10.443 5.60157C10.4647 5.35379 10.4568 5.07571 10.3726 4.83568C10.3572 4.79169 10.3591 4.75602 10.3416 4.75549C10.324 4.75496 10.289 4.79001 10.2315 5.33817C10.174 5.88634 10.0952 6.94656 10.0414 7.53217C9.98763 8.11777 9.96134 8.19663 9.92152 8.21973C9.88169 8.24283 9.82912 8.20778 9.66184 7.78229C9.49456 7.35679 9.21417 6.54191 9.0522 5.76287C8.89024 4.98384 8.85519 4.26534 8.85028 3.7813C8.84305 3.06915 8.92502 2.79091 8.96923 2.74643C8.98187 2.73371 8.99591 2.78958 9.01357 3.43864C9.03123 4.08771 9.05751 5.3407 9.0842 5.97303C9.11088 6.60537 9.13717 6.57908 9.19014 6.46478C9.33404 6.15425 9.45579 5.87997 9.60117 5.64684C10.1246 4.8074 10.3676 4.45519 10.3988 4.32694C10.4105 4.27881 10.3511 4.26003 10.2891 4.251C9.99985 4.20888 9.51288 4.54042 8.90311 5.00415C8.42139 5.3705 8.19139 5.69251 7.94499 5.94807C7.22954 6.69012 6.91689 6.68423 6.77125 6.76388C6.70085 6.80239 6.61685 6.79097 6.5587 6.72087C6.41184 6.54384 6.49073 6.16461 6.645 5.82859C6.76652 5.5639 7.15347 5.55205 7.5021 5.53864C7.87796 5.52419 8.15448 5.67499 8.30463 5.84704C8.46152 6.02682 8.54426 6.29391 8.62379 6.63338C8.72816 7.07892 8.65153 7.54133 8.52793 7.87721C8.43754 8.12286 8.26228 8.25956 8.12527 8.36125C8.03718 8.42664 7.96092 8.4372 7.89029 8.43281C7.85451 8.43059 7.81966 8.41967 7.78846 8.39763C7.62313 8.28084 7.56264 7.82915 7.57963 7.53947C7.58606 7.42987 7.81833 7.49035 8.09965 7.4638C8.69383 7.40771 9.21603 7.48982 9.47212 7.55168C9.70799 7.60866 9.98577 7.61408 10.3167 7.59656C10.6773 7.57746 11.1352 7.42025 11.5818 7.26997C12.0687 7.10612 12.3234 6.63272 12.368 6.45522C12.3878 6.37638 12.5618 6.33109 12.7562 6.2736C12.9119 6.22756 13.3733 6.11947 13.9969 5.92497C14.3219 5.82361 14.4651 5.6941 14.6151 5.59679C14.7606 5.50242 14.9868 5.50797 15.5187 5.27087C15.9427 5.08184 16.6551 4.70079 17.0515 4.49369C17.5929 4.21086 17.6782 4.10948 17.7708 4.06527C17.8178 4.04286 17.8723 4.03859 17.9344 4.08665C18.0945 4.21047 18.1564 4.42704 18.1829 4.6911C18.2304 5.16316 18.1744 5.55099 18.1479 5.72318C18.0902 6.09744 18.0151 6.54138 18.0942 6.93076C18.1626 7.26728 18.1298 7.53389 18.1607 7.83698C18.2316 8.53112 18.1744 9.05612 18.1435 9.16658C18.1298 9.21561 18.1213 9.25075 18.0336 9.29509C17.9458 9.33943 17.7793 9.392 17.3255 9.27451C16.8718 9.15702 16.1358 8.86787 15.5638 8.59624C14.9919 8.32461 14.6064 8.07927 14.399 7.93098C14.1584 7.75893 14.1297 7.64993 14.0855 7.55726C14.0404 7.4626 14.0673 7.34909 14.1114 7.24315C14.2096 7.00728 14.4821 6.81858 14.8582 6.59262C15.1947 6.39044 15.6674 6.41924 16.4144 6.274C16.7476 6.20922 16.9344 6.08283 17.0538 6.15306C17.2184 6.2499 17.1301 6.79628 17.0596 7.46751C16.9959 8.07451 16.8734 8.39259 16.8337 8.45883C16.795 8.52333 16.6004 8.53464 16.2694 8.48631C15.3974 8.35899 15.0588 7.49061 15.0763 7.41985C15.0938 7.3929 15.1289 7.38414 15.3003 7.37963C15.4717 7.37511 15.7784 7.37511 16.0412 7.37511" stroke="#D8D8D8" stroke-width="3" stroke-linecap="round"/>
</svg>
