<svg width="27" height="28" viewBox="0 0 27 28" fill="none" xmlns="http://www.w3.org/2000/svg">
<path d="M12.4677 25.1511C12.7086 25.1511 13.5403 25.1511 14.6652 25.1436C15.3878 25.1388 15.8713 25.0453 16.2535 24.9917C16.6227 24.9399 17.0886 24.7414 17.6361 24.4604C18.3688 24.0843 18.9428 23.7851 19.356 23.4942C19.702 23.2507 20.2359 22.9328 20.709 22.514C21.2252 22.057 21.5918 21.6699 21.9331 21.3282C22.7049 20.5553 22.8383 20.073 23.0142 19.5034C23.132 19.1219 23.3712 18.9014 23.4707 18.6354C23.6101 18.2624 23.9799 17.8374 24.1621 17.5178C24.3781 17.1392 24.573 16.8346 24.7705 16.4305C24.9412 16.0815 24.938 15.6939 24.9841 15.2142C25.0327 14.7075 25.1971 14.1126 25.2729 13.7914C25.3366 13.5212 25.3796 12.4308 25.1828 11.428C25.0817 10.9133 24.8787 10.3704 24.8095 9.96705C24.7178 9.43196 24.437 8.84923 24.3232 8.48423C24.1817 8.03073 23.9662 7.73872 23.7834 7.43462C23.552 7.04942 23.3274 6.67474 23.0464 6.27917C22.6794 5.7627 22.4906 5.38172 22.1948 4.96356C21.9332 4.59396 21.4887 4.36245 20.0319 3.45223C19.4906 3.11401 19.191 2.94807 18.8641 2.81028C18.5846 2.69245 18.2338 2.53744 17.9058 2.42247C17.5251 2.28905 16.9709 2.18704 16.6741 2.11062C16.2496 2.00131 15.7564 1.9288 15.3054 1.7536C14.973 1.62449 14.5081 1.5638 13.9161 1.44951C13.0346 1.27934 12.3473 1.07652 12.0518 1.0309C11.2768 0.911206 10.8416 1.16686 10.5754 1.32655C10.1254 1.59647 9.48838 1.63771 8.99471 1.90394C8.68581 2.07052 8.40843 2.26187 7.97727 2.50368C7.2013 2.93888 6.70433 3.35687 6.55285 3.47071C6.3661 3.61105 5.58468 4.09783 4.58891 4.86547C3.9187 5.38214 3.5425 6.07613 3.04838 6.76074C2.16437 7.98554 2.14181 8.45047 1.80053 8.95965C1.41507 9.53475 1.33515 9.98713 1.21402 10.3216C1.15008 10.4981 1.12254 10.687 1.07691 11.2681C0.968956 12.6429 1.04635 13.6225 1.02353 13.9999C0.926092 15.6116 1.15265 16.1 1.31166 16.587C1.44283 16.9888 1.53225 17.4541 1.58586 17.7662C1.64527 18.112 1.83703 18.5017 1.9203 18.9901C1.99515 19.4292 2.2472 19.766 2.6544 20.4606C2.99127 21.0353 3.69397 21.9984 4.30649 22.7134C4.91901 23.4283 5.44598 23.8499 5.9433 24.1875C6.86285 24.8118 7.7642 25.1648 8.42531 25.4005C8.90709 25.5722 9.79863 25.7269 10.739 25.8506C11.207 25.9121 11.5077 25.9569 11.9111 25.9874C12.1009 26.0326 12.2843 26.0787 12.4513 26.1015C12.5279 26.1093 12.5882 26.1093 12.6502 26.1093" stroke="#D8D8D8" stroke-width="2" stroke-linecap="round"/>
<path d="M10.1541 18.7967C9.161 18.766 8.95698 18.7255 8.5832 18.6078C8.46445 18.4084 8.38241 18.193 8.35168 18.0857C8.34124 18.0292 8.34124 17.9684 8.27979 17.8442" stroke="#D7D7D7" stroke-width="2" stroke-linecap="round"/>
<path d="M7.88037 8.56494V17.8134" stroke="#D7D7D7" stroke-width="2" stroke-linecap="round"/>
<path d="M8.37207 8.56495C8.41263 8.40272 8.4538 8.26845 8.52508 8.16629C8.72516 7.87954 9.0677 7.89943 9.66532 7.89912C9.9182 7.96058 10.0817 8.02172 10.2712 8.04768C10.3176 8.05275 10.3582 8.06289 10.4614 8.10407" stroke="#D7D7D7" stroke-width="2" stroke-linecap="round"/>
<path d="M11.1987 8.56494V18.7045" stroke="#D7D7D7" stroke-width="2" stroke-linecap="round"/>
<path d="M12.8579 7.82751V18.7352" stroke="#D7D7D7" stroke-width="2" stroke-linecap="round"/>
<path d="M13.5955 8.31924C13.5955 8.27868 13.6056 8.20709 13.6412 8.10493C13.7165 7.88919 14.0447 7.81841 14.3771 7.71517C15.0975 7.49148 15.498 7.85774 15.7661 7.9808C15.945 8.06294 15.9915 8.33891 16.0789 8.53356C16.0944 8.58502 16.1045 8.63572 16.1098 8.7024C16.115 8.76907 16.115 8.85019 16.1457 8.90304" stroke="#D7D7D7" stroke-width="2" stroke-linecap="round"/>
<path d="M16.115 9.67114V18.428" stroke="#D7D7D7" stroke-width="2" stroke-linecap="round"/>
<path d="M16.5757 18.428C16.5554 18.4483 16.4639 18.6209 16.3105 18.882C16.1316 19.1865 15.7264 19.1752 15.5166 19.2265C15.1996 19.3041 15.0302 19.4315 14.3203 19.4318C13.9133 19.3602 13.7292 19.2988 13.5652 19.2322C13.524 19.2167 13.4834 19.2066 13.4417 19.1961" stroke="#D7D7D7" stroke-width="2" stroke-linecap="round"/>
<path d="M12.1514 22.5145C13.1337 22.3612 13.5218 22.2589 14.4036 22.0349C14.9635 21.8927 15.9516 21.5682 16.8336 21.1681C17.7155 20.7681 18.4557 20.2814 18.9689 19.8735C19.7991 19.2135 20.1186 18.7463 20.328 18.5524C20.842 18.0766 21.2444 17.5394 21.542 17.1954C21.8361 16.8554 22.0239 16.4323 22.1619 16.1005C22.4239 15.4703 22.444 15.1219 22.5008 14.7932C22.5794 14.3392 22.6486 13.7392 22.7107 13.2631C22.7632 12.8599 22.8133 12.4788 22.8234 12.1877C22.8458 11.5455 22.8342 11.0955 22.7981 10.6918C22.7833 10.5269 22.5792 10.1151 22.3641 9.53173C22.1823 9.03875 22.1379 8.68907 22.0201 8.41746C21.8873 8.11133 21.5855 7.97193 21.3189 7.70554C21.0915 7.47821 20.7356 7.22406 20.4689 7.01405C20.1919 6.79589 19.8857 6.57882 19.0741 6.09903C18.341 5.66565 17.8157 5.48221 17.7135 5.4567C17.4139 5.3819 16.9465 5.22687 16.0229 5.11918C15.6165 5.0718 15.031 4.92146 14.6165 4.85355C13.6973 4.70296 13.2403 4.65353 12.7879 4.56058C12.2376 4.44755 11.5799 4.3561 11.3024 4.30955C10.7226 4.21227 10.247 4.24272 9.59207 4.58255C8.98899 4.89548 7.87249 5.56117 6.95809 6.21487C6.04368 6.86856 5.37447 7.50735 4.9841 7.90234C4.48235 8.41001 4.38817 8.62578 4.29661 8.80414C4.13757 9.11395 3.94787 9.44401 3.89671 9.78123C3.84894 10.0961 3.77427 10.5591 3.63615 11.5472C3.54115 12.2269 3.54874 13.2857 3.51279 13.91C3.47684 14.5344 3.43628 14.6966 3.41032 15.1959C3.38435 15.6952 3.37421 16.5266 3.37913 17.0209C3.38405 17.5151 3.40433 17.6469 3.54152 17.9835C3.67871 18.3201 3.9322 18.8575 4.25036 19.4436C4.56853 20.0297 4.9437 20.6482 5.19273 21.0378C5.44176 21.4274 5.5533 21.5694 5.78313 21.7997C6.01296 22.03 6.3577 22.3443 6.74316 22.6634C7.12862 22.9825 7.54434 23.2968 7.85482 23.5145C8.34715 23.8597 8.67813 24.0093 8.8929 24.1166C9.06609 24.203 9.33259 24.3777 9.94434 24.5006C10.3276 24.5776 10.8806 24.5424 11.2336 24.5323C11.7293 24.518 12.0472 24.481 12.3591 24.4607C12.9076 24.425 13.6127 24.2462 13.9888 24.1842C14.2882 24.1347 14.8209 23.8987 15.5514 23.6277C16.2523 23.3677 16.8604 23.2123 17.2441 22.9923C17.4894 22.8516 17.8535 22.6595 18.3695 22.3275C19.1918 21.7985 19.4826 21.5018 19.918 21.1947C20.5655 20.7379 20.9372 20.4571 21.3982 20.0174C21.6342 19.7923 21.7065 19.5144 21.8291 19.3307C21.971 19.1181 22.0651 18.6566 22.1419 17.9976C22.1808 17.6644 22.168 17.3286 22.1326 16.9484C22.0971 16.5681 22.0261 16.1524 21.9895 15.8318C21.953 15.5112 21.953 15.2982 21.8516 14.6613C21.7502 14.0243 21.5474 12.9698 21.4378 12.315C21.3283 11.6603 21.3182 11.4372 21.1659 10.8001C21.0137 10.163 20.7196 9.11862 20.5124 8.45387C20.2231 7.52591 19.9976 7.14264 19.8594 6.89222C19.6562 6.52364 19.2829 5.8967 18.9579 5.46761C18.7853 5.23962 18.5436 5.03207 17.9475 4.60944C17.5598 4.33452 16.8463 3.86326 16.43 3.59748C16.0136 3.3317 15.9122 3.29114 15.5001 3.21448C15.0879 3.13782 14.368 3.02628 13.9515 2.96883C13.4453 2.89899 13.2179 2.89109 12.9877 2.84515C12.8223 2.81212 12.4921 2.75774 11.981 2.80337C11.2206 2.87125 10.9242 3.41097 10.6263 3.7041C10.476 3.85195 10.4716 4.11859 10.5022 4.36394C10.5566 4.80086 10.9119 5.0207 10.973 5.10259C11.1088 5.28434 11.4533 5.23609 11.6286 5.36376C11.7737 5.46942 11.956 5.5329 12.1048 5.65519C12.5492 6.02025 12.0902 6.41351 12.0188 6.51076C11.8344 6.76175 11.2413 6.54747 11.0508 6.43517C11.0129 6.41282 11.0551 6.34345 11.1112 6.29706C11.243 6.188 11.4742 6.0872 11.8563 5.88825C12.1098 5.75624 12.5121 5.61832 13.0403 5.46899C13.5685 5.31967 14.2174 5.17771 14.6024 5.10458C15.0856 5.0128 15.3048 5.06188 15.6157 5.12824C16.0943 5.23039 16.5031 5.2871 16.7228 5.38911C16.9527 5.49585 17.1788 5.69637 17.5611 5.95615C18.1664 6.36734 18.5215 6.77177 18.5981 6.91496C18.7248 7.15151 19.0924 7.84288 19.4428 8.39441C19.7201 8.83077 19.761 9.29069 19.7816 9.66447C19.7921 9.85573 19.8126 9.9983 19.7667 10.0903C19.726 10.1718 19.6387 10.2238 19.5569 10.2649C19.121 10.4836 18.881 8.98589 18.7731 8.81136C18.7294 8.74057 18.727 8.60673 18.6708 8.5041C18.6547 8.47464 18.6247 8.52315 18.6396 9.17777C18.6545 9.83238 18.7052 11.0998 18.706 11.986C18.7068 12.8721 18.6561 13.3385 18.6502 13.959C18.6444 14.5795 18.6849 15.34 18.7261 15.7926C18.8047 16.6559 18.7777 17.2272 18.824 17.5818C18.8788 18.002 18.696 18.4058 18.6195 19.0145C18.5709 19.4012 18.4809 19.7879 18.3995 20.0761C18.3622 20.2082 18.1337 20.3115 17.9294 20.5057C17.7349 20.6905 17.1035 20.9051 16.2693 21.1404C15.8464 21.2598 15.6551 21.3365 15.2734 21.4027C14.9838 21.453 14.4964 21.5196 13.982 21.5562C13.4677 21.5927 12.9404 21.5927 12.608 21.5826C12.153 21.5687 11.7953 21.4603 11.3608 21.3528C11.0062 21.265 10.7085 21.3466 10.4075 21.3927C9.9995 21.4552 9.51141 21.3678 9.10214 21.2912C8.65551 21.2075 8.37332 20.9579 7.57629 20.4886C7.21206 20.2741 7.01155 19.8229 6.6072 19.26C6.31826 18.8578 6.00712 18.5217 5.83843 18.1949C5.53213 17.6016 5.61721 17.2518 5.59155 16.9441C5.57665 16.7653 5.51458 16.4839 5.50951 16.1464C5.50596 15.9098 5.48386 15.4614 5.47372 14.8831C5.46835 14.5772 5.4224 14.0692 5.42747 13.3885C5.42937 13.1335 5.44268 13.0626 5.44791 12.4684C5.45313 11.8741 5.45313 10.7588 5.4582 10.1487C5.46327 9.53864 5.47341 9.46767 5.48386 9.30236" stroke="#D7D7D7" stroke-width="4" stroke-linecap="round"/>
<path d="M12.4279 20.3022C12.4076 20.3022 12.2552 20.282 12.0046 20.2512C11.896 20.2408 11.825 20.2408 11.829 20.2459C11.833 20.2509 11.9141 20.2611 11.9977 20.2715" stroke="#D7D7D7" stroke-width="4" stroke-linecap="round"/>
</svg>
