<svg width="47" height="63" viewBox="0 0 47 63" fill="none" xmlns="http://www.w3.org/2000/svg">
<path d="M2.6205 59.4978C3.64589 59.7391 4.67127 59.9803 11.3066 60.1197C17.9419 60.2591 30.1561 60.2892 36.5387 60.2595C42.9214 60.2298 43.1023 60.1393 43.2257 60.0324C43.732 59.5936 43.6525 58.4962 43.7759 57.6124C43.8059 57.3976 43.8663 57.2167 43.8974 50.2021C43.9285 43.1875 43.9285 29.3448 43.9285 22.3192C43.9285 15.2937 43.9285 15.5048 43.9285 15.1008C43.9285 12.6121 44.294 12.3135 43.9454 11.491C43.8034 11.156 43.1718 10.6995 42.1089 9.8496C40.8167 8.81624 39.699 7.77506 38.8171 7.13625C37.6141 6.26484 36.9555 5.57989 36.5122 5.21387C35.923 4.72727 35.2191 3.96595 34.7758 3.52317C34.1985 2.94643 31.5452 2.84186 30.0711 2.44112C29.6623 2.32999 29.2477 2.13634 26.5449 2.04495C24.0845 1.96176 19.4087 2.01387 16.8951 2.04403C14.169 2.07674 13.6512 2.19665 12.5308 2.28713C10.3749 2.46122 8.68601 2.86562 7.97226 3.07856C6.34206 3.56491 5.03135 3.81059 3.91914 3.87182C3.09821 3.91701 2.34724 4.14507 2.18 4.38817C2.09808 4.50724 2.04292 4.63126 2.01185 13.7108C1.98077 22.7903 1.98077 40.8251 2.40299 50.1158C2.82521 59.4064 3.66965 59.4064 4.53967 59.4064" stroke="#EDEDED" stroke-width="4" stroke-linecap="round"/>
<path d="M7.64697 46.7946C8.03903 46.7946 8.4311 46.7946 11.0156 46.7796C13.6001 46.7645 18.3651 46.7343 23.2746 46.7032" stroke="#EDEDED" stroke-width="4" stroke-linecap="round"/>
<path d="M7.73853 40.3974C9.21629 40.3974 10.6941 40.3974 15.1497 40.3974C19.6054 40.3974 26.9943 40.3974 30.8911 40.3672C34.7879 40.3371 34.9689 40.2767 35.5899 40.2457C36.2109 40.2146 37.2664 40.2146 38.354 40.2146" stroke="#EDEDED" stroke-width="4" stroke-linecap="round"/>
<path d="M7.92114 33.726C7.98146 33.726 8.04177 33.726 13.0641 33.741C18.0864 33.7561 28.0688 33.7863 38.3538 33.8173" stroke="#EDEDED" stroke-width="4" stroke-linecap="round"/>
<path d="M7.64697 27.3287C8.67236 27.5398 9.69775 27.7509 13.6942 27.7691C17.6907 27.7874 24.6271 27.6065 28.3814 27.468C32.1357 27.3296 32.4976 27.2391 33.7395 27.1925C34.9815 27.1459 37.0926 27.1459 39.2677 27.1459" stroke="#EDEDED" stroke-width="4" stroke-linecap="round"/>
<path d="M7.82983 20.7487C10.4235 20.7788 13.0171 20.809 14.7151 20.8396C17.1369 20.9004 18.0335 20.9616 18.9857 21.0073C19.7872 21.0228 21.2348 21.0228 22.7263 21.0228" stroke="#EDEDED" stroke-width="4" stroke-linecap="round"/>
<path d="M34.2131 4.31592C34.3161 7.76392 34.4463 10.2606 34.5632 11.5581C34.6152 12.1342 34.603 12.5468 35.9282 12.7589C37.2533 12.971 39.9037 12.971 41.2047 12.9453C42.5057 12.9196 42.377 12.8681 41.7189 12.6872C41.0608 12.5063 39.8772 12.1975 38.9072 11.794C37.1422 11.0598 36.4229 10.295 36.3063 10.1004C36.2412 10.0088 36.164 9.9316 36.1886 9.81463C36.2132 9.69767 36.3418 9.54328 36.4744 9.38422" stroke="#EDEDED" stroke-width="4" stroke-linecap="round"/>
</svg>
