<svg width="42" height="46" viewBox="0 0 42 46" fill="none" xmlns="http://www.w3.org/2000/svg">
<path d="M20.7588 1.34033V42.0946" stroke="#EDEDED" stroke-width="2" stroke-linecap="round"/>
<path d="M20.8398 42.7426C21.2158 42.7426 22.2917 42.3683 23.0793 41.7586C23.5434 41.3993 24.0791 40.9893 24.4303 40.5433C24.9089 39.9356 25.51 39.3964 26.0637 39.0035C26.6261 38.6044 27.0494 37.8829 27.2941 37.3972C27.5266 36.9355 27.5096 36.3986 27.6587 35.7233C27.7802 35.1729 28.2112 34.6177 28.3879 34.0076C28.5423 33.4743 28.7784 32.8871 29.0089 32.3738C29.2523 31.8319 29.5611 31.2131 29.698 30.6723C29.8285 30.157 29.8868 29.7272 30.0756 29.1467C30.2623 28.5726 30.4523 27.9723 30.697 27.512C30.9308 27.0724 30.9676 26.4863 31.0887 25.9329C31.2594 25.1531 30.8882 24.5952 30.7788 23.4775C30.6911 22.5815 30.4815 21.8421 30.4142 21.14C30.3006 19.9542 30.7229 19.5718 30.8189 18.965C30.8596 18.7082 30.8866 17.7156 30.8599 16.3253C30.8315 14.8486 30.1315 13.1986 30.0363 12.672C29.9222 12.0408 29.6729 11.3108 29.335 10.4447C29.0818 9.79553 28.8627 9.44404 28.5515 8.97168C28.1951 8.43057 27.7283 7.8236 27.2961 7.21674C26.9307 6.70369 26.6216 5.98763 26.2294 5.39373C25.7384 4.65011 24.9493 4.01716 24.487 3.56992C23.989 3.08799 23.5168 2.55714 23.029 2.21928C22.5726 1.90308 21.9774 1.80039 21.1534 1.71856C20.324 1.63619 19.1951 1.6902 18.6004 1.9199C18.0403 2.1362 17.4936 2.5539 16.9799 2.90513C16.2981 3.3713 15.8991 3.60719 15.5478 3.91832C15.1159 4.30096 14.7372 4.71396 14.2653 5.42898C13.9301 5.9368 13.927 6.6034 13.7645 7.41362C13.5863 8.30246 13.3858 9.03407 13.2918 9.58908C13.2117 10.0621 12.9012 10.5735 12.6707 11.1419C12.4314 11.732 12.01 12.3301 11.7933 12.8563C11.4192 13.7645 11.2532 14.1936 10.8886 14.7741C10.806 14.9056 10.9 15.0573 10.9543 16.2759C11.0086 17.4944 11.062 19.7938 11.0628 21.0319C11.0639 22.5977 10.7947 23.132 10.6448 23.9543C10.3267 25.6996 10.7136 26.0504 10.6444 27.491C10.6032 28.3474 10.819 29.1536 10.9409 29.8978C11.0972 30.8516 11.5465 31.6118 11.7783 32.1271C12.0391 32.707 12.2239 33.5839 12.5204 34.3406C12.9146 35.3466 13.5203 37.1472 13.7358 37.7982C13.9341 38.3972 14.2754 38.9313 15.1776 40.2123C15.9507 41.3101 16.544 41.6067 17.1768 41.9843C18.5017 42.7748 18.9196 42.9857 20.3837 43.3219C22.9802 43.9183 24.9436 43.3641 25.2264 43.2835C25.9007 43.0912 26.4547 42.6632 26.8476 42.3521C27.2796 42.0101 27.9131 41.691 28.4405 41.4337C28.9573 41.1817 29.587 40.9877 30.1554 40.7989C30.695 40.6197 31.1005 40.2326 31.6539 39.7736C32.3423 39.2025 33.045 38.8827 33.6661 38.3962C34.1487 38.0181 34.7724 37.2915 35.1929 36.6546C35.5918 36.0505 35.9084 35.5608 36.0984 35.1014C36.3762 34.4297 36.8547 33.8869 37.3125 33.2788C37.7054 32.7569 37.827 32.1044 37.9351 31.6442C38.0359 31.2156 38.2839 30.4596 38.4351 29.7944C38.5375 29.3434 38.8787 28.4357 39.0156 27.6206C39.098 27.1301 39.4734 26.5689 39.5694 26.0403C39.666 25.5082 39.7991 24.814 39.9469 24.2444C40.0995 23.6568 40.1766 23.1109 40.3253 22.6507C40.468 22.2089 40.2042 21.599 39.9891 20.8155C39.8133 20.1754 39.6921 19.6804 39.6103 19.1538C39.5136 18.5316 39.394 18.06 39.2866 17.4661C39.1739 16.8425 38.9094 16.2791 38.7733 15.7103C38.5841 14.9196 38.3682 14.307 38.1122 13.6175C37.9119 13.0781 37.451 12.6849 37.0731 11.9574C36.6362 11.1164 36.0753 10.6075 35.5336 9.86374C35.0843 9.24665 34.7773 8.71484 34.4528 8.24248C34.1429 7.79139 33.6705 7.44603 31.7855 6.05812C30.8398 5.36177 29.89 5.01536 28.4211 3.58734C27.7622 2.94681 27.0008 2.69164 26.5669 2.40806C26.1064 2.10706 25.5958 1.93489 25.0283 1.77284C24.399 1.59317 23.8409 1.52977 23.2596 1.32762C22.7705 1.15755 22.2196 1.07038 20.9861 1.02987C18.2566 0.940229 16.3042 1.06957 15.9809 1.1907C15.3595 1.42352 14.7129 1.58163 14.1441 1.75826C13.3645 2.00036 12.6598 2.25736 12.0781 2.45991C11.3699 2.70649 10.9049 3.46945 10.2551 3.94505C9.59865 4.42549 8.71724 5.27949 7.8657 6.15777C7.32368 6.71682 7.14865 7.22565 6.79742 7.73893C6.38492 8.34174 5.90739 9.06 5.3933 9.57571C4.83234 10.1384 4.34041 10.8166 3.94786 11.3983C3.60786 11.9022 3.44917 12.4111 3.05661 13.1261C2.75156 13.6817 2.77182 14.2746 2.57007 14.9224C2.35286 15.6198 2.04262 16.5416 1.97537 17.0836C1.86877 17.9429 1.25994 18.9998 1.03065 19.7566C0.857147 20.3292 1.47384 21.3738 1.54311 23.2904C1.57556 24.188 1.42199 24.942 1.32719 25.4828C1.23379 26.0157 1.39444 26.6159 1.25994 27.4926C1.0444 28.8975 1.39444 29.4517 1.59618 30.343C1.72349 30.9054 1.95997 31.4514 2.62071 32.5431C3.02043 33.2036 3.79432 33.9614 4.4579 34.8263C4.80164 35.2744 5.0129 35.8784 5.49741 36.5691C6.0947 37.4206 7.22481 38.2572 7.98156 38.6765C8.52878 38.9797 9.38163 39.821 10.6002 40.6203C11.1528 40.9827 11.8431 41.2291 12.4921 41.3916C13.2708 41.5865 14.1117 41.9843 15.0431 42.1346C15.8054 42.2576 17.8242 43.0327 19.5791 43.6189C20.425 43.9272 21.0545 44.12 21.3106 44.1334C21.4329 44.1468 21.5399 44.1735 21.7311 44.201" stroke="#EDEDED" stroke-width="2" stroke-linecap="round"/>
<path d="M2.20483 31.8047C2.9867 31.8047 3.57898 31.9651 4.26767 32.0745C4.5219 32.1149 4.89802 32.1547 7.35016 32.1822C9.80231 32.2098 14.3209 32.2098 16.7155 32.1964C19.2441 32.1823 19.8629 32.1288 20.6856 32.0887C22.2739 32.0112 24.2138 31.7787 24.996 31.6564C25.5623 31.5678 25.9963 31.4806 27.2063 31.4133C28.8118 31.3241 30.0206 31.3461 30.4914 31.2651C31.6782 31.0608 33.8927 31.3996 35.2733 31.5608C35.4224 31.6151 35.5828 31.6686 35.8794 31.6961C36.1759 31.7236 36.6037 31.7236 37.0445 31.8047" stroke="#EDEDED" stroke-width="2" stroke-linecap="round"/>
<path d="M1.79956 22.2441C2.17388 22.2441 4.02444 22.2441 6.58961 22.2307C7.60479 22.2255 8.65001 22.1631 10.1481 22.1364C11.2617 22.1165 12.326 21.92 13.0459 21.8528C13.4604 21.8141 14.1109 21.7588 17.4859 21.6373C20.4582 21.5302 25.9945 21.5959 28.966 21.6227C31.9375 21.6494 32.1781 21.7029 33.532 21.7304C34.8859 21.758 37.3457 21.758 39.8801 21.758" stroke="#EDEDED" stroke-width="2" stroke-linecap="round"/>
<path d="M3.50098 12.9266C4.16941 12.9266 4.83785 12.9266 6.41211 12.9266C7.98638 12.9266 10.4462 12.9266 11.8337 12.9132C13.9271 12.8931 14.5719 12.6835 16.5906 12.3473C17.605 12.1783 18.2989 12.1982 18.8904 12.0767C19.7849 11.8929 20.4606 11.9819 22.7082 11.9009C24.8476 11.8237 29.0198 11.8733 31.2487 11.9134C33.9638 12.1164 34.6103 12.2768 35.1653 12.3862C35.2877 12.4129 35.3946 12.4664 35.6669 12.6025" stroke="#EDEDED" stroke-width="2" stroke-linecap="round"/>
</svg>
