<svg width="215" height="49" viewBox="0 0 215 49" fill="none" xmlns="http://www.w3.org/2000/svg">
<path d="M0 24.5C0 10.969 10.969 0 24.5 0H190.5C204.031 0 215 10.969 215 24.5C215 38.031 204.031 49 190.5 49H24.5C10.969 49 0 38.031 0 24.5Z" fill="#1DD723" fill-opacity="0.16"/>
<path d="M24.5 0.5H190.5C203.755 0.5 214.5 11.2452 214.5 24.5C214.5 37.7548 203.755 48.5 190.5 48.5H24.5C11.2452 48.5 0.5 37.7548 0.5 24.5C0.5 11.2452 11.2452 0.5 24.5 0.5Z" stroke="#00C306" stroke-opacity="0.78"/>
<path d="M49.48 32.22C48.9067 32.22 48.3433 32.1367 47.79 31.97C47.2433 31.7967 46.73 31.53 46.25 31.17C45.7767 30.81 45.36 30.3467 45 29.78C44.64 29.2133 44.3567 28.54 44.15 27.76C43.95 26.9733 43.85 26.0667 43.85 25.04C43.85 24.02 43.95 23.12 44.15 22.34C44.3567 21.5533 44.64 20.88 45 20.32C45.36 19.7533 45.7767 19.29 46.25 18.93C46.73 18.57 47.2433 18.3067 47.79 18.14C48.3433 17.9667 48.9067 17.88 49.48 17.88C50.0533 17.88 50.6133 17.9667 51.16 18.14C51.7067 18.3067 52.2167 18.57 52.69 18.93C53.17 19.29 53.5867 19.7533 53.94 20.32C54.3 20.88 54.5833 21.5533 54.79 22.34C54.9967 23.12 55.1 24.02 55.1 25.04C55.1 26.0667 54.9967 26.9733 54.79 27.76C54.5833 28.54 54.3 29.2133 53.94 29.78C53.5867 30.3467 53.17 30.81 52.69 31.17C52.2167 31.53 51.7067 31.7967 51.16 31.97C50.6133 32.1367 50.0533 32.22 49.48 32.22ZM49.48 30.67C49.9333 30.67 50.3733 30.5633 50.8 30.35C51.2267 30.1367 51.61 29.8033 51.95 29.35C52.2967 28.8967 52.57 28.3167 52.77 27.61C52.9767 26.8967 53.08 26.04 53.08 25.04C53.08 24.0467 52.9767 23.1967 52.77 22.49C52.57 21.7767 52.2967 21.1967 51.95 20.75C51.61 20.2967 51.2267 19.9633 50.8 19.75C50.3733 19.5367 49.9333 19.43 49.48 19.43C49.0267 19.43 48.5833 19.5367 48.15 19.75C47.7233 19.9633 47.3367 20.2967 46.99 20.75C46.65 21.1967 46.3767 21.7767 46.17 22.49C45.97 23.1967 45.87 24.0467 45.87 25.04C45.87 26.04 45.97 26.8967 46.17 27.61C46.3767 28.3167 46.65 28.8967 46.99 29.35C47.3367 29.8033 47.7233 30.1367 48.15 30.35C48.5833 30.5633 49.0267 30.67 49.48 30.67ZM57.6178 36V22H59.3878L59.5978 23.68V36H57.6178ZM62.6478 32.22C62.0278 32.22 61.4745 32.09 60.9878 31.83C60.5078 31.5633 60.1011 31.22 59.7678 30.8C59.4345 30.3733 59.1811 29.9167 59.0078 29.43C58.8345 28.9367 58.7478 28.47 58.7478 28.03L59.5578 27.76C59.5911 28.12 59.6745 28.47 59.8078 28.81C59.9411 29.15 60.1178 29.4567 60.3378 29.73C60.5578 30.0033 60.8178 30.2233 61.1178 30.39C61.4245 30.55 61.7611 30.63 62.1278 30.63C62.6278 30.63 63.0878 30.4967 63.5078 30.23C63.9345 29.9633 64.2745 29.56 64.5278 29.02C64.7878 28.48 64.9178 27.8 64.9178 26.98C64.9178 26.1467 64.7945 25.4667 64.5478 24.94C64.3011 24.4067 63.9711 24.0133 63.5578 23.76C63.1445 23.5 62.6911 23.37 62.1978 23.37C61.8245 23.37 61.4878 23.4467 61.1878 23.6C60.8878 23.7467 60.6245 23.9467 60.3978 24.2C60.1711 24.4533 59.9845 24.7367 59.8378 25.05C59.6978 25.3567 59.5945 25.6733 59.5278 26L58.7778 25.73C58.7778 25.3033 58.8645 24.86 59.0378 24.4C59.2178 23.94 59.4778 23.5133 59.8178 23.12C60.1645 22.72 60.5811 22.3967 61.0678 22.15C61.5611 21.9033 62.1211 21.78 62.7478 21.78C63.4478 21.78 64.1145 21.9633 64.7478 22.33C65.3811 22.69 65.8978 23.2567 66.2978 24.03C66.6978 24.7967 66.8978 25.78 66.8978 26.98C66.8978 27.88 66.7745 28.66 66.5278 29.32C66.2878 29.98 65.9645 30.5267 65.5578 30.96C65.1511 31.3867 64.6945 31.7033 64.1878 31.91C63.6878 32.1167 63.1745 32.22 62.6478 32.22ZM74.7356 32.22C74.1356 32.22 73.539 32.1167 72.9456 31.91C72.359 31.6967 71.8256 31.3767 71.3456 30.95C70.8656 30.5233 70.4823 29.98 70.1956 29.32C69.909 28.66 69.7656 27.88 69.7656 26.98C69.7656 26.08 69.909 25.3 70.1956 24.64C70.4823 23.98 70.8656 23.44 71.3456 23.02C71.8323 22.5933 72.3723 22.2767 72.9656 22.07C73.559 21.8633 74.1623 21.76 74.7756 21.76C75.4156 21.76 76.029 21.86 76.6156 22.06C77.2023 22.26 77.7223 22.5567 78.1756 22.95C78.6356 23.3433 78.999 23.8367 79.2656 24.43C79.5323 25.0233 79.6656 25.7167 79.6656 26.51C79.6656 26.6367 79.659 26.7767 79.6456 26.93C79.639 27.0833 79.6223 27.2167 79.5956 27.33H71.3456V26.06H77.5756C77.5756 26.02 77.5756 25.9933 77.5756 25.98C77.5756 25.96 77.5756 25.9333 77.5756 25.9C77.5756 25.36 77.449 24.8933 77.1956 24.5C76.9423 24.1067 76.6023 23.8067 76.1756 23.6C75.7556 23.3867 75.299 23.28 74.8056 23.28C74.4456 23.28 74.089 23.35 73.7356 23.49C73.3823 23.6233 73.059 23.8367 72.7656 24.13C72.4723 24.4233 72.2356 24.8067 72.0556 25.28C71.8823 25.7467 71.7956 26.31 71.7956 26.97C71.7956 27.79 71.939 28.4767 72.2256 29.03C72.519 29.5767 72.8956 29.99 73.3556 30.27C73.8223 30.55 74.319 30.69 74.8456 30.69C75.339 30.69 75.7656 30.6133 76.1256 30.46C76.4856 30.3 76.779 30.1033 77.0056 29.87C77.2323 29.63 77.3856 29.3967 77.4656 29.17L79.2856 30.08C79.1323 30.36 78.919 30.63 78.6456 30.89C78.379 31.1433 78.0523 31.37 77.6656 31.57C77.2856 31.77 76.849 31.9267 76.3556 32.04C75.869 32.16 75.329 32.22 74.7356 32.22ZM83.0734 32V22H84.8434L85.0634 24.05V32H83.0734ZM89.6734 32V26.35C89.6734 25.6433 89.5968 25.0733 89.4434 24.64C89.2968 24.2 89.0701 23.88 88.7634 23.68C88.4634 23.4733 88.0768 23.37 87.6034 23.37C87.2634 23.37 86.9401 23.4367 86.6334 23.57C86.3334 23.7033 86.0634 23.89 85.8234 24.13C85.5901 24.37 85.4001 24.6467 85.2534 24.96C85.1068 25.2733 85.0234 25.6067 85.0034 25.96L84.4434 25.78C84.4434 25.28 84.5234 24.7933 84.6834 24.32C84.8501 23.84 85.0901 23.41 85.4034 23.03C85.7234 22.6433 86.1201 22.3367 86.5934 22.11C87.0668 21.8833 87.6168 21.77 88.2434 21.77C88.7634 21.77 89.2334 21.85 89.6534 22.01C90.0734 22.17 90.4334 22.4233 90.7334 22.77C91.0334 23.11 91.2634 23.5533 91.4234 24.1C91.5834 24.64 91.6634 25.29 91.6634 26.05V32H89.6734ZM106.371 32V20.75C106.371 19.9767 106.491 19.3367 106.731 18.83C106.971 18.3233 107.288 17.9233 107.681 17.63C108.081 17.3367 108.518 17.13 108.991 17.01C109.465 16.8833 109.938 16.82 110.411 16.82C110.878 16.82 111.268 16.86 111.581 16.94C111.901 17.02 112.148 17.11 112.321 17.21V18.76C112.155 18.66 111.945 18.5667 111.691 18.48C111.438 18.3867 111.098 18.34 110.671 18.34C110.391 18.34 110.111 18.3767 109.831 18.45C109.558 18.5167 109.308 18.6433 109.081 18.83C108.861 19.01 108.685 19.2767 108.551 19.63C108.418 19.9833 108.351 20.45 108.351 21.03V32H106.371ZM103.761 23.52V22H112.181V23.52H103.761ZM118.38 32.22C117.94 32.22 117.487 32.16 117.02 32.04C116.56 31.9267 116.117 31.7433 115.69 31.49C115.264 31.2367 114.877 30.9067 114.53 30.5C114.19 30.0867 113.92 29.59 113.72 29.01C113.527 28.43 113.43 27.7533 113.43 26.98C113.43 26.2133 113.527 25.54 113.72 24.96C113.92 24.38 114.19 23.8867 114.53 23.48C114.877 23.0733 115.264 22.7433 115.69 22.49C116.117 22.2367 116.56 22.0533 117.02 21.94C117.487 21.82 117.94 21.76 118.38 21.76C118.82 21.76 119.27 21.82 119.73 21.94C120.197 22.0533 120.644 22.2367 121.07 22.49C121.504 22.7433 121.89 23.0733 122.23 23.48C122.57 23.8867 122.84 24.38 123.04 24.96C123.24 25.54 123.34 26.2133 123.34 26.98C123.34 27.7533 123.24 28.43 123.04 29.01C122.84 29.59 122.57 30.0867 122.23 30.5C121.89 30.9067 121.504 31.2367 121.07 31.49C120.644 31.7433 120.197 31.9267 119.73 32.04C119.27 32.16 118.82 32.22 118.38 32.22ZM118.38 30.69C118.714 30.69 119.05 30.63 119.39 30.51C119.73 30.3833 120.044 30.1767 120.33 29.89C120.624 29.6033 120.86 29.2233 121.04 28.75C121.227 28.27 121.32 27.68 121.32 26.98C121.32 26.2867 121.227 25.7067 121.04 25.24C120.86 24.7667 120.624 24.3867 120.33 24.1C120.044 23.8133 119.73 23.6067 119.39 23.48C119.05 23.3533 118.714 23.29 118.38 23.29C118.054 23.29 117.717 23.3533 117.37 23.48C117.03 23.6067 116.714 23.8133 116.42 24.1C116.134 24.3867 115.9 24.7667 115.72 25.24C115.54 25.7067 115.45 26.2867 115.45 26.98C115.45 27.68 115.54 28.27 115.72 28.75C115.9 29.2233 116.134 29.6033 116.42 29.89C116.714 30.1767 117.03 30.3833 117.37 30.51C117.717 30.63 118.054 30.69 118.38 30.69ZM126.908 32V30.48H129.018V23.52H126.908V22H130.628L130.998 24.47V30.48H133.408V32H126.908ZM130.968 26.18L130.168 25.86C130.182 25.4267 130.268 25.01 130.428 24.61C130.595 24.2033 130.815 23.8267 131.088 23.48C131.362 23.1333 131.678 22.8333 132.038 22.58C132.398 22.3267 132.785 22.1267 133.198 21.98C133.618 21.8333 134.048 21.76 134.488 21.76C134.935 21.76 135.272 21.8 135.498 21.88C135.732 21.9533 135.885 22.0133 135.958 22.06L135.508 23.76C135.442 23.7067 135.302 23.65 135.088 23.59C134.875 23.5233 134.592 23.49 134.238 23.49C133.865 23.49 133.495 23.5667 133.128 23.72C132.768 23.8733 132.435 24.08 132.128 24.34C131.828 24.5933 131.575 24.8833 131.368 25.21C131.168 25.53 131.035 25.8533 130.968 26.18ZM157.586 32L154.766 22H156.236L159.056 32H157.586ZM150.076 32L148.046 22H150.036L151.776 32H150.076ZM151.246 32L154.056 22H155.526L152.716 32H151.246ZM158.516 32L160.256 22H162.246L160.216 32H158.516ZM169.437 32.22C168.997 32.22 168.543 32.16 168.077 32.04C167.617 31.9267 167.173 31.7433 166.747 31.49C166.32 31.2367 165.933 30.9067 165.587 30.5C165.247 30.0867 164.977 29.59 164.777 29.01C164.583 28.43 164.487 27.7533 164.487 26.98C164.487 26.2133 164.583 25.54 164.777 24.96C164.977 24.38 165.247 23.8867 165.587 23.48C165.933 23.0733 166.32 22.7433 166.747 22.49C167.173 22.2367 167.617 22.0533 168.077 21.94C168.543 21.82 168.997 21.76 169.437 21.76C169.877 21.76 170.327 21.82 170.787 21.94C171.253 22.0533 171.7 22.2367 172.127 22.49C172.56 22.7433 172.947 23.0733 173.287 23.48C173.627 23.8867 173.897 24.38 174.097 24.96C174.297 25.54 174.397 26.2133 174.397 26.98C174.397 27.7533 174.297 28.43 174.097 29.01C173.897 29.59 173.627 30.0867 173.287 30.5C172.947 30.9067 172.56 31.2367 172.127 31.49C171.7 31.7433 171.253 31.9267 170.787 32.04C170.327 32.16 169.877 32.22 169.437 32.22ZM169.437 30.69C169.77 30.69 170.107 30.63 170.447 30.51C170.787 30.3833 171.1 30.1767 171.387 29.89C171.68 29.6033 171.917 29.2233 172.097 28.75C172.283 28.27 172.377 27.68 172.377 26.98C172.377 26.2867 172.283 25.7067 172.097 25.24C171.917 24.7667 171.68 24.3867 171.387 24.1C171.1 23.8133 170.787 23.6067 170.447 23.48C170.107 23.3533 169.77 23.29 169.437 23.29C169.11 23.29 168.773 23.3533 168.427 23.48C168.087 23.6067 167.77 23.8133 167.477 24.1C167.19 24.3867 166.957 24.7667 166.777 25.24C166.597 25.7067 166.507 26.2867 166.507 26.98C166.507 27.68 166.597 28.27 166.777 28.75C166.957 29.2233 167.19 29.6033 167.477 29.89C167.77 30.1767 168.087 30.3833 168.427 30.51C168.773 30.63 169.11 30.69 169.437 30.69ZM177.965 32V30.48H180.075V23.52H177.965V22H181.685L182.055 24.47V30.48H184.465V32H177.965ZM182.025 26.18L181.225 25.86C181.238 25.4267 181.325 25.01 181.485 24.61C181.651 24.2033 181.871 23.8267 182.145 23.48C182.418 23.1333 182.735 22.8333 183.095 22.58C183.455 22.3267 183.841 22.1267 184.255 21.98C184.675 21.8333 185.105 21.76 185.545 21.76C185.991 21.76 186.328 21.8 186.555 21.88C186.788 21.9533 186.941 22.0133 187.015 22.06L186.565 23.76C186.498 23.7067 186.358 23.65 186.145 23.59C185.931 23.5233 185.648 23.49 185.295 23.49C184.921 23.49 184.551 23.5667 184.185 23.72C183.825 23.8733 183.491 24.08 183.185 24.34C182.885 24.5933 182.631 24.8833 182.425 25.21C182.225 25.53 182.091 25.8533 182.025 26.18ZM190.752 32V17H192.732V26.01H194.092V27.52H192.732V32H190.752ZM197.262 32L192.532 26.66L194.562 26.39L199.652 32H197.262ZM194.572 27.01L192.712 26.52L197.212 22H199.592L194.572 27.01Z" fill="#04D62A"/>
<circle cx="23.5" cy="25.5" r="6.5" fill="#04A209"/>
</svg>
