<svg width="29" height="28" viewBox="0 0 29 28" fill="none" xmlns="http://www.w3.org/2000/svg">
<path d="M16.948 20.1472C17.0695 20.2074 17.1662 20.4018 17.27 20.7114C17.3597 20.979 17.3858 21.2285 17.6581 22.2582C17.9395 23.3219 17.9695 23.648 18.0178 23.8857C18.0834 24.2081 18.1519 24.6556 18.1216 24.9681C18.0818 25.3795 17.8725 25.9587 17.836 26.3354C17.8263 26.4358 17.7638 26.5176 17.763 26.5671C17.759 26.8427 18.443 26.5687 18.692 26.4589C18.9302 26.3539 19.1843 26.3615 19.5488 26.2402C19.955 26.105 20.2416 26.0208 20.5103 25.9724C20.7427 25.9306 21.1887 25.4764 21.6407 25.2127C21.9326 25.0423 22.2838 24.7818 22.5715 24.5743C22.7706 24.4305 23.2433 24.1142 23.9018 23.4389C24.1835 23.15 24.3531 22.9337 24.5473 22.6294C24.9094 22.0624 25.0827 21.9115 25.3197 21.5107C25.4546 21.2825 25.6059 21.1089 25.7213 20.7446C25.8326 20.3936 25.9823 20.1246 26.2317 19.8139C26.4723 19.5143 26.7353 19.0192 27.0525 18.4224C27.1975 18.1496 27.2716 17.7657 27.3269 17.4729C27.4272 16.9413 27.3701 16.2327 27.2847 15.9649C27.1737 15.6167 27.4423 15.0412 27.4668 14.4039C27.4849 13.9308 27.5759 13.5696 27.6067 12.9081C27.6209 12.6037 27.686 12.3657 27.5525 11.9894C27.3363 11.38 27.4912 11.0523 27.4307 10.827C27.3913 10.6805 27.2738 10.1195 26.9104 9.19139C26.5362 8.23563 25.9845 7.76861 25.754 7.59277C25.3188 7.26086 25.0601 6.97805 24.7987 6.8199C24.5151 6.64829 24.3429 6.34619 24.0993 6.04211C23.8886 5.77898 23.7103 5.61582 23.5217 5.42192C23.0958 4.98416 23.0164 4.57099 22.8103 4.38165C22.5954 4.18432 22.3728 3.87711 22.1051 3.64016C21.8884 3.44842 21.6191 3.18468 21.309 2.93497C20.8258 2.54582 20.5364 2.56304 20.2326 2.4421C19.8467 2.28842 19.4915 2.05302 19.1685 1.97349C18.8395 1.8925 18.5065 1.77284 18.0928 1.74238C17.6101 1.70683 17.3508 1.57876 17.0708 1.47497C16.7336 1.34998 16.4752 1.33506 16.2315 1.3046C15.8518 1.25714 15.4063 1.14025 14.9795 1.09191C14.7775 1.06904 13.9157 0.994324 12.7121 1.00034C12.0089 1.00386 11.6232 1.14025 11.2644 1.29767C10.9477 1.43661 10.3011 1.52842 9.75037 1.73545C9.49368 1.83195 9.27592 1.95452 8.99009 2.02767C8.67314 2.10878 8.47333 2.28286 7.90276 2.5862C7.55571 2.77071 6.97977 3.19344 6.58832 3.49843C6.31112 3.7144 5.93274 3.98363 5.51266 4.2826C5.01413 4.63739 4.84924 4.87306 4.66045 5.00676C4.37707 5.20745 3.97441 5.78291 3.80294 6.06455C3.62831 6.3514 3.31701 6.70809 3.18276 7.01271C3.11485 7.16679 3.02443 7.29289 2.8495 7.62487C2.44565 8.39129 2.04015 9.17534 1.88218 9.65544C1.74891 10.0605 1.52868 10.4533 1.44969 10.7643C1.37586 11.055 1.23682 11.342 1.21238 11.6397C1.18532 11.9692 1.11497 12.3985 1.05442 12.8186C0.952722 13.524 1.00553 14.1358 1.11443 14.6976C1.19 15.0875 1.30906 15.5593 1.3459 16.4655C1.36789 17.0062 1.62499 17.5796 1.68026 17.9689C1.7135 18.203 1.8198 18.4194 1.91684 18.6557C2.04409 18.9654 2.07554 19.6558 2.11184 20.4217C2.1403 21.0223 2.76759 21.508 3.05343 21.6789C3.33065 21.8447 3.42499 22.0676 3.5587 22.2564C3.73129 22.5001 4.00797 22.8578 4.53002 23.5312C4.8241 23.9106 5.51175 24.2908 6.13558 24.7184C6.49281 24.9632 7.00895 25.313 7.7913 25.7802C9.01861 26.513 9.4058 26.7124 9.7843 26.8595C9.91688 26.911 10.0523 26.9328 10.1978 26.9147C10.352 26.8956 10.466 26.7752 10.557 26.6481C10.7814 26.3345 10.7461 25.9741 10.843 25.7539C10.9381 25.5376 10.9161 25.2561 10.9105 24.4249C10.9088 24.1797 10.8191 24.0635 10.789 23.9663C10.6643 23.5635 9.71371 23.8807 9.37935 23.8623C9.11421 23.8477 8.85055 23.7713 8.59463 23.6015C8.38901 23.465 8.16907 23.3466 7.9562 23.2786C7.67631 23.1892 7.5 23.0424 7.29351 22.8718C6.98371 22.616 6.77036 22.4463 6.56369 22.2699C6.38331 22.1159 6.30778 21.875 6.17425 21.7104C6.05655 21.5654 5.99184 21.3402 5.84008 21.0485C5.57992 20.5485 5.3359 20.1618 4.86219 19.4444C4.68491 19.1759 4.52054 19.1016 4.45943 19.0652C4.30359 18.9721 4.93169 19.0892 5.23029 19.2587C5.49329 19.4079 5.74669 19.5993 6.11771 19.8605C6.34874 20.0231 6.57409 20.183 6.82946 20.3291C7.04108 20.4501 7.1702 20.6207 7.42521 20.8517C7.63954 21.0458 7.85095 21.1315 8.17892 21.3744C8.44565 21.572 8.6893 21.643 8.92132 21.7035C9.1113 21.7531 10.1529 21.7524 10.7638 21.6375C11.0121 21.5908 11.0737 21.1453 11.129 20.8174C11.1802 20.5135 11.366 20.4029 11.4026 20.3181C11.4219 20.2734 11.3671 20.2092 11.3123 20.1782C11.0817 20.0475 10.7841 20.0385 10.5584 19.9347C10.3501 19.8389 10.0428 19.8196 9.76806 19.7158C9.51279 19.6194 9.1424 19.5153 8.94704 19.3756C8.69675 19.1966 8.36461 18.9448 8.24131 18.6586C8.13136 18.4034 7.97499 18.2144 7.79167 17.9714C7.64302 17.7744 7.56056 17.5461 7.41481 17.2965C7.24162 17 7.06222 16.804 6.94639 16.6092C6.83358 16.4195 6.77036 16.1962 6.70287 15.977C6.62745 15.7319 6.63611 15.479 6.53287 15.0777C6.46468 14.8127 6.35666 14.4458 6.29555 14.1651C6.22795 13.8545 6.23481 13.4601 6.24047 13.1803C6.24627 12.893 6.39241 12.6699 6.42288 12.408C6.4611 12.0793 6.58723 11.7579 6.75668 11.1689C6.8475 10.8532 6.98779 10.651 7.33382 10.0502C7.51336 9.73841 7.32999 9.19322 7.28056 8.29394C7.24428 7.63396 7.11037 6.89341 7.11001 6.55924C7.10976 6.33235 7.21909 6.17509 7.31613 6.12036C7.52832 6.00071 7.87503 6.2112 8.11234 6.27176C8.46116 6.36078 8.78634 6.32065 9.70276 6.56891C10.2373 6.71372 10.5141 6.79418 10.7027 6.94631C11.0098 7.19403 11.2926 7.30493 11.4929 7.42094C11.8817 7.64613 12.216 7.26954 13.0069 7.2088C13.6399 7.16018 14.7489 7.17213 15.3496 7.17195C16.121 7.17172 16.6277 7.29252 17.0742 7.3602C17.587 7.43791 17.774 7.52455 18.0715 7.42787C18.5788 7.26302 18.8684 7.05101 19.2382 6.89305C20.0422 6.54953 20.2912 6.53954 20.6675 6.4549C20.896 6.40352 21.0818 6.32065 21.2155 6.36881C21.5017 6.4719 21.3258 7.50485 21.3561 8.37238C21.383 9.14389 21.3864 9.70068 21.477 9.84606C21.6151 10.0674 21.8358 10.2596 22.1319 10.6585C22.7079 11.4347 23.1495 11.9746 23.2043 12.1563C23.3413 12.6111 23.1864 13.2835 23.1501 13.8884C23.1044 14.6492 23.1499 14.9646 23.047 15.4394C22.9851 15.7253 22.7858 15.9263 22.4883 16.4363C22.3261 16.7144 22.1175 16.8996 21.8982 17.1606C21.646 17.4609 21.436 17.5928 21.2357 17.7992C21.0339 18.0073 20.7432 18.1641 20.4647 18.3882C20.083 18.6954 19.4448 19.0746 18.7588 19.4756C18.2533 19.708 17.8739 19.8185 17.5222 19.8732C17.3391 19.8918 17.1465 19.8918 16.948 19.8918" stroke="#EDEDED" stroke-width="2" stroke-linecap="round"/>
<path d="M8.48413 25.9474C8.60523 25.9113 8.75112 25.7417 8.91507 25.5651C9.1344 25.329 9.3223 25.1092 9.50467 24.9389C9.66807 24.7863 9.86941 24.708 10.0518 24.5619C10.1007 24.5253 10.1488 24.4892 10.1917 24.4525C10.2345 24.4158 10.2706 24.3797 10.3078 24.3425" stroke="#EDEDED" stroke-linecap="round"/>
<path d="M6.76978 25.0719C7.03677 24.7805 7.20673 24.6109 7.41336 24.4524C7.59307 24.3146 7.79032 24.1973 7.97269 24.0512C8.02156 24.0145 8.06971 23.9784 8.1246 23.9538C8.1795 23.9292 8.23968 23.9172 8.41111 23.8683" stroke="#EDEDED" stroke-linecap="round"/>
<path d="M4.83594 23.6492C5.10147 23.5044 5.61283 23.2122 5.79575 23.0661C6.02681 22.9321 6.24529 22.811 6.47034 22.6709C6.52541 22.6403 6.57356 22.6162 6.65964 22.5549" stroke="#EDEDED" stroke-linecap="round"/>
<path d="M3.48608 22.2993C4.34724 21.7171 4.85897 21.3035 5.08401 21.1084C5.13909 21.0716 5.18723 21.0475 5.25416 21.011C5.32109 20.9745 5.40535 20.9264 5.49215 20.8038" stroke="#EDEDED" stroke-linecap="round"/>
<path d="M2.31885 20.7306C2.6803 20.4899 3.50863 19.9289 3.86735 19.6499C3.99483 19.5525 4.17537 19.4321 4.32255 19.3701C4.46972 19.3081 4.57805 19.3081 4.68966 19.3081" stroke="#EDEDED" stroke-linecap="round"/>
<path d="M8.99512 21.2413C9.4525 20.9284 9.78441 20.695 9.9604 20.5374C10.0401 20.452 10.1003 20.3558 10.1554 20.2941C10.2104 20.2325 10.2586 20.2084 10.3082 20.1836" stroke="#EDEDED" stroke-linecap="round"/>
<path d="M7.0249 20.2929C7.04898 20.2929 7.37432 20.0643 7.86654 19.6997C8.08192 19.5277 8.21541 19.3942 8.38538 19.2483C8.45906 19.1987 8.50721 19.1987 8.55681 19.1987" stroke="#EDEDED" stroke-linecap="round"/>
<path d="M5.34692 19.4538C5.96625 19.0894 6.40175 18.8235 6.70175 18.5851C6.98716 18.4208 7.24321 18.2749 7.32199 18.1839C7.36467 18.1411 7.41281 18.105 7.46242 18.0677" stroke="#EDEDED" stroke-linecap="round"/>
<path d="M2.1001 18.1772C2.12418 18.1772 2.83484 17.792 4.03728 17.1541C5.18827 16.6453 5.47903 16.572 5.90477 16.4631C6.00291 16.4264 6.07514 16.3903 6.25901 16.2802" stroke="#EDEDED" stroke-linecap="round"/>
<path d="M1.47974 16.426C2.35274 16.1725 3.27536 15.6373 3.69162 15.3872C4.25043 15.0515 4.76017 14.761 5.35683 14.6328C5.49163 14.6023 5.59998 14.5662 5.67987 14.5295C5.75977 14.4929 5.80792 14.4568 5.85754 14.4196" stroke="#EDEDED" stroke-linecap="round"/>
<path d="M1.55273 14.6385C2.49177 14.2532 3.09591 13.9946 3.49502 13.8432C4.74359 13.3696 5.21112 13.1931 5.48582 13.0216C5.58907 12.937 5.68684 12.8753 5.77786 12.839C5.82073 12.8148 5.85684 12.7786 5.96702 12.705" stroke="#EDEDED" stroke-linecap="round"/>
<path d="M1.37036 12.8143C1.44259 12.8143 2.10583 12.6097 3.1928 12.2273C3.95229 11.9602 4.27613 11.7082 4.48772 11.557C5.17112 11.0686 5.4191 10.991 5.66188 10.9114C5.85542 10.8691 6.02725 10.8443 6.15457 10.8262C6.2217 10.8082 6.29393 10.7721 6.4778 10.7349" stroke="#EDEDED" stroke-linecap="round"/>
<path d="M1.91748 10.8809C1.9536 10.8809 1.98971 10.8809 2.4357 10.7064C2.88169 10.5318 3.73646 10.1827 4.38145 9.94261C5.42571 9.55397 5.95381 9.45813 6.15994 9.44609C6.65864 9.33701 7.04826 9.23924 7.22429 9.23322C7.304 9.2272 7.36419 9.21516 7.42621 9.20276" stroke="#EDEDED" stroke-linecap="round"/>
<path d="M2.68359 8.87439C3.50224 8.60954 4.34533 8.31659 5.03192 8.04936C5.54084 7.79235 5.79512 7.62307 6.05632 7.43464C6.16103 7.3666 6.20918 7.35457 6.33176 7.34216" stroke="#EDEDED" stroke-linecap="round"/>
<path d="M3.44971 6.72191C3.46175 6.72191 3.47378 6.72191 3.96154 6.60754C4.4493 6.49317 5.41242 6.26443 5.94469 6.14659C6.47696 6.02876 6.54919 6.02876 6.61048 6.0107C6.67177 5.99264 6.71992 5.95652 6.8425 5.91931" stroke="#EDEDED" stroke-linecap="round"/>
<path d="M7.31689 5.9193C7.72731 5.68983 8.531 5.348 9.07203 5.12382C9.6373 4.88959 10.2821 4.71541 10.5749 4.66707C10.8903 4.61499 11.146 4.49725 12.0075 4.27836C12.3901 4.18116 12.9555 4.0602 13.4318 3.94966C14.1799 3.77601 14.4418 3.7304 15.0184 3.5427C15.3384 3.43854 15.6333 3.37799 16.6219 3.09307C17.049 2.96998 17.5405 2.83149 17.9803 2.74558C18.3581 2.69688 18.6729 2.67243 18.8991 2.58159C18.9538 2.56299 19.0261 2.56299 19.1005 2.56299" stroke="#EDEDED" stroke-linecap="round"/>
<path d="M5.16455 4.86137C5.21271 4.86137 5.46625 4.80118 5.9573 4.63172C6.53578 4.43209 6.99885 4.12043 7.46527 3.96866C8.06775 3.77263 8.5081 3.77932 8.6294 3.74284C8.74617 3.70773 9.45078 3.57393 10.4597 3.3368C10.9096 3.23105 11.4109 3.15987 12.0612 2.99588C12.6047 2.85884 13.0555 2.6732 13.2688 2.59367C13.516 2.50147 13.7246 2.35654 13.9497 2.23524C14.1949 2.1031 14.9117 1.87133 15.3663 1.77885C15.4392 1.76079 15.5356 1.72468 15.6153 1.69403C15.695 1.66339 15.7552 1.63931 15.8902 1.6145" stroke="#EDEDED" stroke-linecap="round"/>
<path d="M8.95874 6.75838C8.98282 6.75838 9.64532 6.60187 10.6845 6.36474C11.3681 6.20875 11.7175 6.13892 12.6883 5.96855C13.1586 5.886 13.9268 5.545 14.6116 5.3542C14.8032 5.30081 15.2179 5.17799 15.8251 5.08095C16.5909 4.95858 17.3094 4.71686 17.7435 4.5941C18.0902 4.49607 18.7074 4.31484 19.3721 4.25355C19.8314 4.21119 20.0477 3.99817 20.3096 3.87687C20.5716 3.7428 20.7657 3.69392 21.0028 3.62734C21.0699 3.60892 21.1422 3.59688 21.2166 3.58447" stroke="#EDEDED" stroke-linecap="round"/>
<path d="M14.2119 7.12319C14.2841 7.12319 14.8511 6.97872 15.7078 6.75381C16.1384 6.6408 16.4957 6.5767 17.0531 6.43113C17.7467 6.25002 18.2242 6.21115 18.466 6.16901C19.2611 6.0305 19.6448 5.7741 20.2232 5.68253C20.704 5.60641 21.2244 5.41001 21.6834 5.31753C21.8351 5.26336 21.9577 5.22614 22.0848 5.20809C22.1638 5.19003 22.2722 5.15391 22.4203 5.1167" stroke="#EDEDED" stroke-linecap="round"/>
<path d="M21.6543 7.70664C22.1368 7.57424 23.2555 6.94433 23.6715 6.64944C23.733 6.61279 23.7691 6.57668 23.8719 6.50993C23.9748 6.44318 24.1433 6.34689 24.3898 6.24768" stroke="#EDEDED" stroke-linecap="round"/>
<path d="M21.4717 9.45808C21.5198 9.45808 21.978 9.47012 22.6769 9.4703C23.3621 9.47048 23.9743 8.74231 24.4249 8.34685C24.9371 8.07214 25.0706 7.95066 25.1859 7.87168C25.241 7.84085 25.2891 7.82881 25.3387 7.81641" stroke="#EDEDED" stroke-linecap="round"/>
<path d="M22.7122 11.3915C23.158 11.3313 24.1335 11.161 24.6619 10.8698C24.9751 10.6973 25.3242 10.5772 25.6783 10.4012C25.9844 10.249 26.4311 10.0906 26.7665 10.0176C26.8459 10.0052 26.9302 10.0052 27.0217 9.99318C27.1133 9.98114 27.2096 9.95706 27.3088 9.93225" stroke="#EDEDED" stroke-linecap="round"/>
<path d="M23.4419 13.3251C23.4901 13.301 24.2252 12.9154 25.3315 12.3318C25.9204 12.0212 26.189 11.9512 26.4564 11.8601C26.5655 11.8297 26.734 11.7936 26.8509 11.775C26.9678 11.7563 27.028 11.7563 27.0901 11.7563" stroke="#EDEDED" stroke-linecap="round"/>
<path d="M23.2229 14.8574C24.5953 14.5444 25.4829 14.3591 25.8529 14.2985C26.5176 14.1161 26.8331 13.9943 27.4221 13.8547C27.5515 13.8239 27.6116 13.8118 27.6737 13.7994" stroke="#EDEDED" stroke-linecap="round"/>
<path d="M22.7485 16.3896C22.7967 16.3896 23.5077 16.2933 24.7882 16.0872C25.8641 15.857 26.4204 15.7089 26.614 15.6604C26.7473 15.6359 26.952 15.6118 27.2358 15.587" stroke="#EDEDED" stroke-linecap="round"/>
<path d="M18.3708 25.6559C19.5853 25.3888 19.9753 25.2188 20.2486 25.0182C20.4409 24.8769 20.8363 24.576 22.1115 23.7618C22.6659 23.4078 23.0748 23.2488 23.3922 23.1208C23.6596 23.054 24 22.9442 24.2125 22.9139C24.3046 22.8957 24.3648 22.8716 24.4268 22.8468" stroke="#EDEDED" stroke-linecap="round"/>
<path d="M18.2249 24.0507C18.2971 23.9785 18.8881 23.6884 19.7753 23.2933C20.3869 23.021 20.6925 22.9562 21.8017 22.4417C22.4732 22.1301 23.2688 21.6327 23.6353 21.3943C23.8664 21.2299 24.1823 21.0358 24.5043 20.9016C24.6197 20.8651 24.7762 20.8169 25.0469 20.7673" stroke="#EDEDED" stroke-linecap="round"/>
<path d="M17.6775 21.9713C18.9051 21.7039 19.557 21.4628 20.3443 21.224C20.9135 21.0514 21.554 20.8893 22.0354 20.7134C22.4611 20.5579 23.1103 20.5493 23.8099 20.3003C24.322 20.118 24.6433 19.9291 24.9667 19.6801C25.034 19.6128 25.0942 19.5526 25.2878 19.4674C25.4813 19.3822 25.8063 19.2739 26.1412 19.1622" stroke="#EDEDED" stroke-linecap="round"/>
<path d="M18.9546 19.8554C19.5325 19.6387 20.0228 19.4548 20.4772 19.3092C21.0529 19.1248 21.4831 19.0411 21.6831 18.9561C22.3683 18.6648 23.3054 18.5304 23.8046 18.3604C24.5671 18.1007 25.4936 18.0568 25.8608 17.9767C26.1652 17.8372 26.3356 17.7154 26.4326 17.6668C26.4815 17.6424 26.5296 17.6183 26.5793 17.5935" stroke="#EDEDED" stroke-linecap="round"/>
</svg>
