<svg width="38" height="28" viewBox="0 0 38 28" fill="none" xmlns="http://www.w3.org/2000/svg">
<path d="M1.8949 4.6156C2.28035 4.86703 2.54891 5.06807 2.90111 5.29481C3.30794 5.55672 3.57276 5.87324 3.90909 6.16825C4.28378 6.49692 5.11457 6.99786 5.65522 7.46066C6.38168 8.08252 7.46358 8.72611 8.04932 9.0909C8.37775 9.29545 9.09509 9.86786 9.69443 10.2243C10.0387 10.4291 10.3915 10.728 10.943 11.0789C11.8603 11.6626 12.675 12.1554 13.1028 12.3985C13.3972 12.5658 13.5835 12.7106 14.0672 12.9772C15.1553 13.5768 15.868 14.1215 16.2598 14.388C17.8601 15.4769 18.1344 15.7489 18.5543 16.1276C18.8431 16.388 19.1592 16.3888 19.4366 16.3475C19.8926 16.2796 20.3514 15.8356 20.8215 15.4501C21.2185 15.1246 21.6614 14.8783 22.1058 14.5938C23.0586 13.9841 23.3242 13.6529 23.7441 13.3755C24.1175 13.1289 24.3823 12.8799 24.6934 12.6698C24.8953 12.5335 25.1884 12.3262 25.8062 11.8833C26.2437 11.5696 26.9892 11.1577 27.6654 10.7355C28.9517 9.93232 29.6234 9.48644 29.8406 9.36148C30.658 8.89116 30.9667 8.59712 31.879 8.04438C32.7642 7.50801 33.2664 7.08654 33.704 6.79153C33.9766 6.60774 34.2247 6.34687 34.6192 6.12794C34.8974 5.92615 35.2647 5.6586 35.6023 5.48124C35.6698 5.42279 35.7363 5.32302 35.956 5.16985" stroke="#EDEDED" stroke-width="2" stroke-linecap="round"/>
<path d="M4.66614 1.29016C4.91756 1.65899 5.25162 2.02681 5.97316 2.58106C6.40531 2.91302 6.64732 3.17108 6.88111 3.29604C8.07478 3.93403 8.93083 4.64891 9.43393 4.98372C9.67161 5.1419 10.6036 5.70198 11.8628 6.54973C12.6394 7.07256 13.3114 7.43425 13.8601 7.76378C14.2986 8.0271 15.2734 8.74228 16.0096 9.17459C16.5027 9.4642 16.8243 9.62001 17.077 9.80467C17.7079 10.2657 18.604 11.2147 18.9816 11.4165C19.3082 11.5911 19.6963 11.0157 20.1571 10.7645C20.8734 10.3741 21.3596 9.90671 21.6773 9.72305C22.6105 9.18353 23.171 8.85011 24.3125 8.39613C24.9768 8.13192 25.656 7.75874 26.1208 7.42166C26.6299 7.05249 27.0185 6.73288 27.322 6.51446C27.7084 6.23648 28.0272 6.06173 28.3212 5.82568C28.72 5.50551 29.302 5.17191 29.9237 4.55947C30.8581 3.63908 31.8052 3.15546 32.1256 2.87002C32.4279 2.60121 32.7968 2.29889 33.0829 2.10541C33.1505 2.06309 33.217 2.02983 33.4367 1.8948" stroke="#EDEDED" stroke-width="2" stroke-linecap="round"/>
<path d="M5.47241 7.99146V26.584" stroke="#EDEDED" stroke-width="2" stroke-linecap="round"/>
<path d="M32.429 8.34424V25.8786" stroke="#EDEDED" stroke-width="2" stroke-linecap="round"/>
<path d="M1.59253 24.7323C1.62579 24.8492 1.69331 25.0508 1.7515 25.1848C1.92696 25.5889 2.34732 25.6715 2.60756 25.8738C2.87511 26.0818 3.18675 26.2096 3.48076 26.3023C3.68759 26.3676 3.92592 26.3951 4.13553 26.4117C4.22991 26.4192 4.29525 26.4616 8.36998 26.4787C12.4447 26.4958 20.5257 26.4958 24.7301 26.4875C28.9346 26.4792 29.0177 26.4626 29.6176 26.454C30.2174 26.4454 31.3315 26.4454 31.9469 26.4371C32.9149 26.4241 33.4517 26.3285 33.9385 26.0602C34.4646 25.7702 35.2465 25.6745 35.6861 25.5138C36.0705 25.3733 36.3076 24.8845 36.4175 24.6242C36.4485 24.5506 36.4759 24.4653 36.5014 24.3809C36.5268 24.2965 36.5434 24.2133 36.552 20.8284C36.5606 17.4434 36.5606 10.7592 36.5606 7.45715C36.5606 4.15509 36.5606 4.43776 36.5606 4.20094C36.5606 3.96413 36.5606 3.19926 36.4442 2.79693C36.2081 1.98104 35.4702 2.07565 35.1845 1.95825C34.8432 1.81801 34.5804 1.63931 34.1186 1.47958C33.9344 1.41586 33.7566 1.43726 31.0284 1.41206C28.3835 1.38764 23.179 1.4035 20.4481 1.38687C17.7171 1.37024 17.6174 1.33699 17.2833 1.31986C16.3849 1.27379 15.6851 1.2861 14.7438 1.26091C13.9193 1.23883 12.3893 1.25234 11.5514 1.24403C10.6134 1.23472 10.3446 1.20195 10.0096 1.18533C9.67121 1.16854 8.68843 1.08455 7.42071 1.04273C6.71062 1.01931 6.34698 0.983277 4.77316 1.00872C4.14395 1.0189 3.74402 1.20095 3.34119 1.34404C2.96454 1.47784 2.41887 1.98747 1.86513 2.67499C1.11876 3.60167 1.05643 4.55969 1.00453 5.62284C0.962593 6.4819 1.2227 6.84319 1.3401 7.14652C1.36735 7.21692 1.40711 7.28055 1.41593 7.36469C1.42475 7.44884 1.40812 7.5486 1.39955 10.4433C1.39099 13.338 1.39099 19.0246 1.39099 24.8835" stroke="#EDEDED" stroke-width="2" stroke-linecap="round"/>
<path d="M35.3079 2.63318C35.3878 2.92106 35.429 3.27728 35.421 3.63228C35.3966 4.17364 35.413 4.74843 35.3888 4.92993C35.3806 5.00748 35.3806 5.05546 35.3806 5.10489" stroke="#EDEDED" stroke-linecap="round"/>
<path d="M33.7086 2.24548C33.8366 2.54936 33.8945 3.14572 33.8664 3.92007C33.8463 4.4726 33.7813 4.74894 33.7573 4.89373C33.6119 5.37002 33.5313 5.75822 33.4828 5.97159C33.4663 6.08899 33.4663 6.22494 33.4663 6.365" stroke="#EDEDED" stroke-linecap="round"/>
<path d="M32.3272 3.72363C32.2633 3.89956 32.1903 4.1981 32.1098 4.5771C32.0454 4.88002 31.964 5.30383 31.8997 5.85209C31.8699 6.10594 31.8033 6.30439 31.7745 6.57531C31.7457 7.18209 31.7377 7.56012 31.7256 7.64057C31.7214 7.68903 31.7214 7.75301 31.7214 7.81892" stroke="#EDEDED" stroke-linecap="round"/>
<path d="M30.2433 5.20178C30.2593 5.6496 30.2753 6.09741 30.2835 6.54402C30.2918 6.99062 30.2918 7.42245 30.2958 7.67289C30.316 8.15693 30.292 8.45645 30.2477 8.56525C30.2273 8.61807 30.2113 8.66606 30.1948 8.71549" stroke="#EDEDED" stroke-linecap="round"/>
<path d="M28.6439 6.55884C28.6439 6.75876 28.6439 6.95867 28.6399 7.40952C28.6359 7.86036 28.6279 8.55608 28.6118 8.94646C28.5957 9.33685 28.5717 9.40082 28.4985 9.5152" stroke="#EDEDED" stroke-linecap="round"/>
<path d="M26.1721 7.69775C26.1721 7.71375 26.1721 7.72974 26.1801 8.25777C26.1881 8.78579 26.2041 9.82536 26.2206 10.8964" stroke="#EDEDED" stroke-linecap="round"/>
<path d="M23.9672 9.22449C23.9672 9.26447 23.9672 9.30445 23.9552 9.64092C23.9432 9.97739 23.9192 10.6091 23.8629 11.1545C23.8065 11.6998 23.7186 12.1397 23.6732 12.5102C23.6279 12.8807 23.6279 13.1686 23.6279 13.4652" stroke="#EDEDED" stroke-linecap="round"/>
<path d="M21.6406 10.63C21.6806 11.1498 21.7206 11.6696 21.7412 12.1293C21.779 12.9722 21.7458 13.4083 21.7216 13.4928C21.7133 13.5854 21.7213 13.7068 21.7294 13.8358C21.7296 13.8929 21.7216 13.9329 21.7133 14.0225" stroke="#EDEDED" stroke-linecap="round"/>
<path d="M19.896 11.3085C19.88 11.3325 19.864 11.3565 19.8638 11.8326C19.8635 12.3088 19.8795 13.2364 19.8718 13.7742C19.7911 14.6276 19.7748 14.8057 19.7628 14.8662C19.7509 14.8946 19.7269 14.9186 19.7021 15.016" stroke="#EDEDED" stroke-linecap="round"/>
<path d="M19.5566 15.3552C19.5646 15.4672 19.5726 15.5791 19.5808 15.6568C19.5889 15.7345 19.5969 15.7744 19.6051 15.8156" stroke="#EDEDED" stroke-linecap="round"/>
<path d="M18.1029 11.4539C18.0709 12.6374 18.0385 13.447 18.0222 13.7939C18.038 14.0288 18.0465 14.3193 18.0223 14.6542C18.0062 14.7892 17.9822 14.8532 17.9575 14.9433" stroke="#EDEDED" stroke-linecap="round"/>
<path d="M16.4792 10.1453C16.4872 10.1852 16.4952 10.2252 16.5194 10.7856C16.5435 11.346 16.5834 12.4255 16.596 13.0177C16.6086 13.6098 16.5927 13.6817 16.5762 13.8044" stroke="#EDEDED" stroke-linecap="round"/>
<path d="M14.8253 9.13965C14.8253 9.15564 14.8253 9.17164 14.7973 9.52373C14.7694 9.87583 14.7134 10.5635 14.6925 11.0578C14.6717 11.552 14.6877 11.8319 14.7039 12C14.7202 12.1682 14.7362 12.2162 14.7769 12.2656" stroke="#EDEDED" stroke-linecap="round"/>
<path d="M13.4926 8.17029C13.5086 9.32181 13.5168 10.0989 13.5048 10.4816C13.4441 11.1584 13.4361 11.344 13.428 11.493C13.4279 11.5701 13.4359 11.6501 13.4441 11.7325" stroke="#EDEDED" stroke-linecap="round"/>
<path d="M11.8449 7.32227C11.8528 7.35425 11.8608 7.38624 11.869 7.91851C11.8771 8.45077 11.8851 9.48235 11.8772 10.0378C11.8693 10.5932 11.8453 10.6411 11.833 10.6978C11.8206 10.7546 11.8206 10.8185 11.7964 10.9087" stroke="#EDEDED" stroke-linecap="round"/>
<path d="M10.1969 6.25598C10.2689 6.97569 10.3408 7.69539 10.3979 8.27806C10.455 8.86073 10.495 9.28455 10.5116 9.52688C10.5282 9.7692 10.5202 9.81718 10.4635 9.91508" stroke="#EDEDED" stroke-linecap="round"/>
<path d="M8.64612 5.26245C8.66211 5.28644 8.6781 5.31043 8.69034 5.79859C8.70258 6.28676 8.71058 7.23837 8.72269 7.78457C8.7508 8.44272 8.76728 8.59805 8.77528 8.67462C8.78327 8.71122 8.79927 8.7432 8.81574 8.80039" stroke="#EDEDED" stroke-linecap="round"/>
<path d="M7.24061 4.14771C7.24061 4.97936 7.24061 5.55173 7.22461 5.87778C7.20862 6.05989 7.17663 6.2758 7.16015 6.53097C7.14368 6.78614 7.14368 7.07402 7.14368 7.37062" stroke="#EDEDED" stroke-linecap="round"/>
<path d="M6.44096 3.71155C6.329 4.29531 6.21705 4.87907 6.16337 5.41969C6.1097 5.96032 6.11769 6.44012 6.12593 6.93447" stroke="#EDEDED" stroke-linecap="round"/>
<path d="M4.8902 2.52417C4.88221 2.54816 4.87421 2.57215 4.87009 3.13228C4.86597 3.69242 4.86597 4.78797 4.8175 5.89248" stroke="#EDEDED" stroke-linecap="round"/>
<path d="M3.21804 2.08801C3.17006 2.59181 3.12208 3.0956 3.10136 3.59103C3.08064 4.08646 3.08864 4.55827 3.14534 5.11707" stroke="#EDEDED" stroke-linecap="round"/>
<path d="M1.46118 6.87988C1.47718 6.87988 1.49317 6.87988 2.08117 7.29171C2.66917 7.70354 3.82869 8.52721 4.45001 8.97551C5.11931 9.47179 5.2967 9.59319 5.50255 9.71823C5.58046 9.7713 5.60445 9.80329 5.62916 9.83624" stroke="#EDEDED" stroke-linecap="round"/>
<path d="M1.77612 9.13354C2.16796 9.46941 2.5598 9.80527 3.1375 10.2422C3.7152 10.6791 4.4669 11.2069 4.87012 11.4948C5.27335 11.7826 5.30534 11.8146 5.2656 11.8476" stroke="#EDEDED" stroke-linecap="round"/>
<path d="M1.65515 11.4357C1.69513 11.4357 1.73512 11.4357 2.17554 11.7315C2.61597 12.0274 3.45562 12.6192 4.03211 13C4.6086 13.3808 4.89649 13.5327 5.08077 13.635C5.26506 13.7373 5.33703 13.7852 5.3981 13.822C5.45916 13.8587 5.50714 13.8827 5.55658 13.9316" stroke="#EDEDED" stroke-linecap="round"/>
<path d="M1.63086 13.3015C2.35056 14.0292 3.07027 14.7569 3.56497 15.2597C4.05968 15.7626 4.30758 16.0185 4.56299 16.2821" stroke="#EDEDED" stroke-linecap="round"/>
<path d="M1.96997 15.8217C1.97797 15.8536 1.98596 15.8856 2.17001 16.066C2.35406 16.2465 2.71391 16.5743 3.33911 17.0511C3.9643 17.5279 4.84394 18.1436 5.77447 18.8022" stroke="#EDEDED" stroke-linecap="round"/>
<path d="M2.18811 18.1238C2.65192 18.4436 3.11573 18.7635 3.45862 19.0163C4.23963 19.6582 4.33608 19.7951 4.453 19.9201C4.50595 19.9732 4.54593 20.0052 4.65982 20.0624" stroke="#EDEDED" stroke-linecap="round"/>
<path d="M2.01855 20.2563C2.02655 20.2723 2.03455 20.2883 2.32655 20.5285C2.61855 20.7686 3.19431 21.2324 3.59887 21.5433C4.00344 21.8542 4.21935 21.9982 4.45852 22.1363C4.6977 22.2744 4.95359 22.4024 5.21724 22.5584" stroke="#EDEDED" stroke-linecap="round"/>
<path d="M2.04285 22.5826C2.71457 23.1824 3.3863 23.7821 3.76032 24.1111C4.34396 24.5692 4.58677 24.6826 4.68746 24.7109C4.74016 24.7231 4.79614 24.7311 4.90228 24.7393" stroke="#EDEDED" stroke-linecap="round"/>
<path d="M34.4658 6.90417C35.1216 7.19206 35.5713 7.43632 35.7569 7.58971C35.8306 7.64714 35.8626 7.66314 35.8951 7.69137C35.9275 7.7196 35.9595 7.75958 35.9925 7.80078" stroke="#EDEDED" stroke-linecap="round"/>
<path d="M33.0603 8.47937C33.0843 8.49536 33.1083 8.51136 33.4645 8.67153C33.8207 8.83171 34.5084 9.13559 34.9187 9.32811C35.6202 9.69075 35.7821 9.77944 35.8905 9.87601C35.967 9.93259 36.0869 10.0046 36.2105 10.0787" stroke="#EDEDED" stroke-linecap="round"/>
<path d="M33.3511 10.3937C33.3671 10.4017 33.3831 10.4097 34.003 10.7576C34.623 11.1056 35.8465 11.7933 37.0829 12.5746" stroke="#EDEDED" stroke-linecap="round"/>
<path d="M33.3269 12.8412C33.3749 12.8572 33.8874 13.0493 34.7624 13.388C35.4216 13.6627 35.7577 13.8262 35.9224 13.9028C36.0312 13.9394 36.1912 13.9714 36.356 14.0043" stroke="#EDEDED" stroke-linecap="round"/>
<path d="M32.9634 14.6101C33.0673 14.6581 33.1713 14.7061 33.6887 14.9427C34.206 15.1793 35.1336 15.6032 35.6795 15.8735C36.2253 16.1438 36.3613 16.2477 36.5498 16.3548" stroke="#EDEDED" stroke-linecap="round"/>
<path d="M32.8362 16.7487C33.6678 17.1005 34.4995 17.4524 34.9999 17.6656C35.8485 18.0247 35.9942 18.0892 36.0706 18.1537C36.1151 18.1861 36.1711 18.2181 36.2287 18.2511" stroke="#EDEDED" stroke-linecap="round"/>
<path d="M32.2788 18.6387C32.2948 18.6547 32.3108 18.6707 32.5509 18.7789C32.7911 18.8871 33.2549 19.087 33.8857 19.4339C34.5164 19.7807 35.3001 20.2685 35.7398 20.5358C36.1795 20.8031 36.2515 20.8351 36.3256 20.8681" stroke="#EDEDED" stroke-linecap="round"/>
<path d="M33.0059 20.8197C33.7256 21.1316 34.4453 21.4434 35.0279 21.744C35.6106 22.0447 36.0344 22.3245 36.5196 22.6129" stroke="#EDEDED" stroke-linecap="round"/>
<path d="M33.127 22.9279C33.7907 23.2637 34.4544 23.5996 35.0082 23.9165C35.5621 24.2335 35.9859 24.5214 36.2202 24.6777C36.4546 24.834 36.4865 24.85 36.5195 24.8665" stroke="#EDEDED" stroke-linecap="round"/>
<path d="M32.2546 25.0118C32.2786 25.0118 32.3026 25.0118 32.5949 25.1318C32.8871 25.2517 33.4469 25.4916 33.8432 25.6392C34.2395 25.7868 34.4554 25.8348 34.7506 25.9327" stroke="#EDEDED" stroke-linecap="round"/>
</svg>
