<svg width="33" height="30" viewBox="0 0 33 30" fill="none" xmlns="http://www.w3.org/2000/svg">
<path d="M4.29199 27.1626C4.50068 27.1626 4.96117 27.2457 5.38106 27.3877C6.16938 27.6542 6.78426 27.5718 7.23925 27.6083C7.61906 27.6388 8.18306 27.687 8.59681 27.7761C9.01974 27.8671 9.71216 27.896 10.4456 28.0586C10.9632 28.1733 11.2579 28.1695 11.4824 28.2323C11.8535 28.3362 12.2019 28.3272 12.3956 28.3376C12.486 28.3425 12.5582 28.3688 13.7642 28.3795C14.9702 28.3902 17.3073 28.3902 18.5736 28.3798C19.8399 28.3694 19.9645 28.3486 20.1741 28.3379C20.6741 28.3124 21.0989 28.3064 21.3397 28.275C21.5581 28.2464 21.9472 28.2019 22.5902 28.1023C23.3811 27.9798 23.9321 28.0232 24.136 27.9917C24.5888 27.9218 25.0529 27.8349 25.4895 27.7817C25.9462 27.7261 26.3648 27.6876 26.7123 27.5879C26.9259 27.5265 27.2468 27.4988 27.5465 27.3886C27.7935 27.2888 27.9509 27.2048 28.0504 27.1525C28.0979 27.1211 28.1395 27.0795 28.2137 26.9738" stroke="#EDEDED" stroke-width="2" stroke-linecap="round"/>
<path d="M28.9847 11.1571C28.9432 11.7803 28.9218 12.3611 28.9945 12.9934C29.0948 13.8657 29.3728 14.44 29.4197 14.6909C29.5635 15.4603 29.562 16.1284 29.5357 16.5902C29.5096 17.0479 29.4153 17.4196 29.3678 17.708C29.2899 18.1807 29.268 18.8121 29.2 19.287C29.1476 19.6531 29.2988 20.0516 29.3257 20.6086C29.3385 20.8732 29.2787 21.1023 29.1896 21.49C29.0902 21.9229 29.0791 22.1624 29.0008 22.4242C28.9378 22.6347 28.9743 22.8652 28.9534 23.2406C28.8808 24.5428 28.828 24.858 28.7803 25.1106C28.7201 25.4293 28.5768 25.8646 28.5022 26.1128C28.4185 26.3175 28.3552 26.5164 28.3448 26.6841C28.3344 26.7582 28.3136 26.8101 28.2922 26.8636" stroke="#EDEDED" stroke-width="2" stroke-linecap="round"/>
<path d="M28.8746 10.8502C28.6234 10.8502 28.4138 10.8086 28.1308 10.6933C28.0563 10.6629 27.9946 10.6305 27.6768 10.4119C26.7821 9.79635 26.168 9.33965 26.1 9.26647C25.9003 9.05153 25.5923 8.64938 25.4075 8.33305C25.2618 8.08354 25.0874 7.8927 25.066 7.72383C25.046 7.56543 24.9716 8.06896 24.8621 8.36232C24.7163 8.75283 24.4585 9.01324 24.2431 9.29621C24.0876 9.50036 23.9027 9.71579 23.64 9.79558C23.4578 9.85093 23.2625 9.94745 23.0265 9.99498C22.4848 10.1041 22.0355 9.82217 21.6679 9.71232C21.3597 9.62024 20.7368 9.28897 20.33 9.00459C19.9674 8.75113 19.8416 8.49074 19.606 8.02442C19.4113 7.63897 19.2222 7.56661 19.2115 7.51923C19.2089 7.50789 19.2631 7.54457 19.2897 7.59179C19.438 7.85506 19.2335 8.33021 19.1227 8.6039C18.9824 8.95049 18.6267 9.30534 18.3467 9.54849C17.9877 9.86025 17.5231 10.0627 17.3133 10.1C17.0486 10.147 16.2805 10.2207 15.7501 10.1423C15.4675 10.1005 15.1731 10.0633 14.9891 9.97452C14.6612 9.81629 14.1565 9.23735 13.7726 8.82124C13.5634 8.59448 13.2543 8.19864 13.0688 7.92874C12.9705 7.78578 12.9166 7.64026 12.8902 7.62373C12.4445 7.3452 12.8754 8.60343 12.7854 8.80361C12.6971 8.99988 12.3308 9.27449 11.9687 9.62624C11.2481 10.3262 10.8093 10.21 10.332 10.2729C9.82618 10.3396 9.48667 10.1684 9.10912 10.0115C8.81286 9.88838 8.54239 9.65472 8.32175 9.53417C7.88178 9.29379 7.76556 9.00443 7.61322 8.76332C7.42938 8.47238 7.2311 8.20809 7.01518 7.8768C6.9725 7.81132 6.95726 7.75609 6.89462 7.86956C6.47463 8.63041 6.27612 9.08564 6.07641 9.29149C5.77833 9.59873 5.32303 9.84106 5.01661 9.97389C4.91491 10.018 4.18328 10.0318 3.0876 10.011C2.30113 9.99612 2.09989 9.8121 1.92142 9.67046C1.6738 9.47394 1.4817 9.12089 1.31251 8.78961C1.1923 8.55421 1.05048 8.24963 1.00798 7.79874C0.977229 7.47239 1.03915 7.17945 1.12822 6.89569C1.20806 6.64136 1.25948 6.27735 1.27537 6.02995C1.29792 5.67905 1.36398 5.17569 1.46391 4.78192C1.52477 4.54215 1.71021 4.37746 1.81015 4.16232C1.9612 3.83715 2.24531 3.391 2.35579 3.19711C2.47513 2.98767 2.59091 2.68909 2.8221 2.3685C3.04199 2.0636 3.37781 1.91163 3.64048 1.73332C3.81903 1.61211 4.1112 1.39794 4.37497 1.25048C4.65417 1.09438 4.90975 1.06115 5.11403 1.05076C5.20453 1.04616 5.26637 1.0196 8.77815 1.0089C12.2899 0.998196 19.2493 0.998196 22.8655 1.00339C26.4818 1.00858 26.5441 1.01897 26.7009 1.02432C27.4059 1.04839 27.6351 1.1241 27.8927 1.30162C28.0121 1.38389 28.5341 1.74009 29.2736 2.21207C29.6586 2.45779 29.7553 2.66579 29.9232 2.85449C30.0948 3.0473 30.2482 3.5446 30.4007 3.99219C30.5297 4.3708 30.6152 4.80427 30.7994 5.19379C30.9004 5.40745 30.8891 5.65538 30.9675 5.90751C31.0406 6.14271 31.0779 6.35856 31.1041 6.65223C31.1274 6.91407 31.0156 7.18701 30.947 7.51247C30.8851 7.80626 30.7644 8.11995 30.6741 8.42039C30.5892 8.70274 30.3231 9.07556 30.1919 9.25482C30.0272 9.4797 29.7572 9.63269 29.5156 9.78456C29.1954 9.98585 28.9281 10.0419 28.7493 10.0894C28.6656 10.0948 28.5709 10.1155 28.4662 10.147C28.4135 10.1577 28.3616 10.1577 28.3081 10.1577" stroke="#EDEDED" stroke-width="2" stroke-linecap="round"/>
<path d="M3.17456 10.5198C2.99641 11.138 2.80881 11.5144 2.70777 12.0747C2.58309 12.7661 2.68165 13.3825 2.65017 13.6549C2.62841 13.8433 2.62909 14.0127 2.61335 14.414C2.58093 15.2406 2.63916 15.8386 2.69156 16.068C2.8672 16.8371 2.76475 17.0869 2.80205 17.7774C2.81627 18.0407 2.8491 18.2201 2.88058 18.7407C2.90699 19.1775 2.89128 19.9676 2.88609 20.421C2.87752 21.1685 2.83903 21.5244 2.82313 21.9753C2.81032 22.3389 2.65017 22.6682 2.63428 22.9413C2.61174 23.3285 2.64954 23.8543 2.80142 24.4975C2.94447 25.1034 3.09021 25.3651 3.2265 25.5906C3.35119 25.797 3.39427 26.13 3.51513 26.4298C3.63328 26.7228 3.80282 26.9175 3.94006 27.1018C3.97154 27.1388 4.01308 27.1699 4.06046 27.1912C4.10783 27.2124 4.15976 27.2228 4.21327 27.2965" stroke="#EDEDED" stroke-width="2" stroke-linecap="round"/>
<path d="M11.1144 21.733C11.6378 21.8168 12.0464 21.8589 12.4593 21.8797C12.6963 21.8916 12.9865 21.942 14.0193 21.9686C15.052 21.9952 16.8178 22.0056 17.7638 22.0006C18.9316 21.9944 19.1817 21.9219 19.4752 21.8331C19.8434 21.7218 20.0422 21.7022 20.2677 21.6178C20.3713 21.5791 20.5247 21.5864 20.7391 21.7159C21.5939 22.2324 21.3648 22.8234 21.5006 23.0383C21.7169 23.3807 22.2839 23.9105 22.6599 24.2662C22.9153 24.5078 23.1892 24.5338 23.5617 24.7017C23.873 24.842 24.1863 24.8699 24.4226 24.8858C25.0112 24.9254 26.0012 24.8706 26.2586 24.7919C26.6368 24.6762 26.841 24.3562 26.9359 24.1941C27.0779 23.9516 27.2087 23.592 27.3136 23.2242C27.4349 22.7993 27.2936 22.1756 27.1728 21.74C27.0701 21.3698 26.9789 20.9077 26.8267 20.4647C26.6935 20.0771 26.4123 19.6562 26.3437 19.4466C26.2698 19.2207 26.129 18.9745 25.8305 18.3832C25.6816 18.0883 25.6563 17.8206 25.3794 17.3807C25.1771 17.0592 25.101 16.824 25.0321 16.5719C24.9573 16.2982 24.9953 15.9326 24.8646 15.4082C24.8078 15.18 24.8064 14.967 24.7125 14.6468C24.6449 14.4166 24.5238 14.1593 24.3717 13.933C24.1953 13.6704 23.8432 13.4983 23.6423 13.319C23.41 13.1118 22.9103 12.7743 22.5987 12.5532C22.3763 12.3954 21.9553 12.3123 21.5605 12.2222C21.2108 12.1425 20.8115 12.1329 20.3645 12.2216C20.074 12.2793 19.7721 12.5301 19.4199 12.7408C19.226 12.8568 18.9638 13.0028 18.1666 13.1502C17.5171 13.2701 16.2185 13.1716 15.4823 13.1819C14.6002 13.1944 14.3989 13.2553 14.1176 13.3335C13.4894 13.5082 12.9828 13.5807 12.8101 13.5652C12.4166 13.5297 12.1021 13.2666 11.8183 13.0622C11.6212 12.9202 11.4197 12.8367 11.1938 12.7521C11.1053 12.719 10.657 12.6679 9.95982 12.6783C9.37654 12.687 8.98658 12.9191 8.67607 13.0712C8.23973 13.2848 7.83267 13.7255 7.49037 14.104C7.21092 14.413 6.94001 15.067 6.79727 15.4891C6.66824 15.8707 6.48801 16.3701 6.44552 16.6537C6.39115 17.0166 6.19466 17.553 6.01084 18.1838C5.81839 18.8442 5.73196 19.361 5.71638 19.5388C5.6785 19.9712 5.48078 20.3154 5.43829 20.6353C5.37243 21.1312 5.36495 21.6795 5.21843 21.9575C5.04512 22.2862 5.07097 22.7799 5.02391 23.049C4.99213 23.2308 5.01871 23.4629 5.02359 23.7047C5.02886 23.9655 5.37313 24.4475 5.75683 24.8271C6.02549 25.0929 6.30797 25.1948 6.54939 25.2843C6.66969 25.3289 6.83268 25.3525 7.18725 25.3997C7.86839 25.4904 8.43764 25.3742 8.65246 25.2956C8.94713 25.1879 9.23461 24.9442 9.79016 24.2752C10.2873 23.6765 10.3268 23.2451 10.4685 22.9408C10.7149 22.6052 10.8833 22.2791 10.946 22.1693C10.9878 22.1114 11.0501 22.049 11.1773 21.8904" stroke="#EDEDED" stroke-width="2" stroke-linecap="round"/>
<path d="M14.6013 18.8056C14.6013 18.9157 14.6013 19.0825 14.6082 19.3158C14.6208 19.7424 14.6705 19.8981 14.6962 20.0537C14.702 20.0883 14.6986 20.1208 15.0312 20.1396C15.3637 20.1585 16.0288 20.1631 16.4105 20.17C16.8703 20.1784 17.0743 20.1956 17.2619 20.1841C17.3266 20.1802 17.3257 20.1497 17.3303 20.1104C17.3517 19.9269 17.3902 19.6143 17.4114 19.4014C17.4241 19.274 17.4505 19.1628 17.4785 19.0331C17.5019 18.9252 17.5342 18.8615 17.5434 18.8152C17.551 18.7767 17.6082 18.764 17.7483 18.7432C18.0912 18.6922 18.3678 18.7269 18.4441 18.7107C18.5636 18.6853 18.6826 18.6435 18.7872 18.6365C18.8406 18.6329 18.9328 18.6019 19.0141 18.5534C19.0615 18.5251 18.9384 18.4399 18.743 18.2834C18.58 18.1529 18.2679 17.9435 17.8664 17.6306C17.465 17.3177 16.9788 16.9141 16.7191 16.6924C16.3777 16.4008 16.2743 16.3086 16.1908 16.2321C16.1021 16.1507 16.0842 16.0304 16.0334 16.0186C15.9391 15.9967 15.8896 16.155 15.6347 16.4444C15.4037 16.7068 14.9441 17.1834 14.6964 17.443C14.4241 17.7284 14.3745 17.7767 14.31 17.8413C14.1127 18.039 13.9716 18.1056 13.8766 18.1936C13.7363 18.3237 13.6011 18.3744 13.5128 18.4508C13.4699 18.488 13.4016 18.5134 13.3392 18.562C13.3101 18.5846 13.2814 18.5968 13.453 18.6039C13.6246 18.611 13.9961 18.611 14.2036 18.6133C14.4432 18.6159 14.6184 18.6249 14.8797 18.6295C15.2142 18.6353 15.3052 18.6896 15.3817 18.7312C15.5132 18.8026 15.551 19.0316 15.6066 19.2219C15.6237 19.2806 15.6252 19.0124 15.7262 18.4323C15.7779 18.1358 15.9924 17.8751 16.1464 17.7105C16.3004 17.5458 16.4289 17.4954 16.5226 17.4923C16.6163 17.4892 16.6713 17.5351 16.7157 17.5863C16.8015 17.6851 16.8391 17.7996 16.8691 17.9724C16.9233 18.2846 16.918 18.5226 16.9019 18.5919C16.8748 18.7087 16.7472 18.7497 16.4488 18.9369C16.3113 19.0463 16.2417 19.0973 16.2139 19.1251C16.2 19.139 16.1862 19.1528 16.2137 19.1948" stroke="#EDEDED" stroke-width="2" stroke-linecap="round"/>
<path d="M2.11938 4.83607C2.75877 4.27753 3.39816 3.71899 3.82675 3.34306C4.25535 2.96713 4.45378 2.79075 4.66624 2.63007C5.08649 2.31224 5.41453 2.14179 5.62164 2.01986C5.88755 1.83178 6.09779 1.69616 6.19789 1.65173C6.23921 1.62934 6.26125 1.6073 6.35078 1.54004" stroke="#EDEDED" stroke-linecap="round"/>
<path d="M1.62939 6.77357C2.19529 6.44286 2.76118 6.11214 3.42017 5.70292C4.07915 5.2937 4.81408 4.816 5.56749 4.28329C6.3209 3.75058 7.07052 3.17733 7.54121 2.84895C8.15762 2.41891 8.40653 2.35689 8.51755 2.28662C8.64327 2.19431 8.83635 2.06782 9.05137 1.94544C9.14146 1.89656 9.1929 1.87451 9.26818 1.80725" stroke="#EDEDED" stroke-linecap="round"/>
<path d="M1.74097 8.88932C1.75567 8.88932 1.77036 8.88932 2.8987 7.98904C4.02703 7.08875 6.26856 5.28818 7.61069 4.25405C8.95282 3.21992 9.32764 3.00679 9.7412 2.81616C10.1548 2.62552 10.5957 2.46384 10.8927 2.33645C11.5467 2.00796 11.7988 1.9044 12.0365 1.80018C12.089 1.78503 12.1257 1.78503 12.1636 1.78503" stroke="#EDEDED" stroke-linecap="round"/>
<path d="M3.94556 9.71332C3.94556 9.70597 3.94556 9.69862 5.01855 8.96358C6.09154 8.22854 8.23753 6.76604 9.93465 5.54595C11.6318 4.32586 12.815 3.3925 13.5826 2.82717C14.3501 2.26183 14.6661 2.0928 14.8583 1.98367C15.0505 1.87455 15.1093 1.83045 15.2144 1.74048" stroke="#EDEDED" stroke-linecap="round"/>
<path d="M8.26611 9.55745C8.64827 9.35167 9.03044 9.14589 10.6053 7.98893C12.1802 6.83198 14.9361 4.73009 16.4882 3.58116C18.0402 2.43222 18.3048 2.29993 18.4741 2.22076C18.6435 2.14159 18.7096 2.11954 18.7621 2.09716C18.8145 2.07478 18.8513 2.05273 18.956 1.98547" stroke="#EDEDED" stroke-linecap="round"/>
<path d="M12.7981 9.14545C13.7388 8.43992 14.6795 7.73439 15.8807 6.80137C17.0818 5.86835 18.5149 4.72921 19.323 4.10931C20.1311 3.48941 20.2707 3.42327 20.4198 3.33775C20.5689 3.25223 20.7233 3.14934 20.924 2.98243C21.3673 2.58768 21.676 2.26476 21.7945 2.10541C21.8542 2.03426 21.913 1.98281 21.9735 1.92981" stroke="#EDEDED" stroke-linecap="round"/>
<path d="M15.1589 9.88037C15.181 9.86568 15.203 9.85098 16.8018 8.6418C18.4006 7.43262 21.5755 5.02941 23.2331 3.76567C24.8907 2.50193 24.9348 2.45049 25.0494 2.3358C25.164 2.2211 25.3477 2.04472 25.4607 1.93181C25.5737 1.8189 25.6105 1.7748 25.6929 1.72937" stroke="#EDEDED" stroke-linecap="round"/>
<path d="M19.0784 9.12308C20.2175 8.32936 21.3566 7.53564 22.7115 6.56086C24.0663 5.58608 25.6023 4.45429 26.4671 3.79776C27.3318 3.14122 27.4788 2.99424 27.5692 2.90749C27.6596 2.82075 27.689 2.7987 27.7226 2.78367C27.7561 2.76864 27.7928 2.76129 27.8307 2.73145" stroke="#EDEDED" stroke-linecap="round"/>
<path d="M22.0627 9.65762C22.0848 9.65762 22.1068 9.65762 23.1544 8.94842C24.202 8.23922 26.2745 6.82081 27.4745 6.02764C28.6744 5.23448 28.939 5.10954 29.2296 4.94597C29.5202 4.78239 29.8289 4.58396 30.1469 4.37952" stroke="#EDEDED" stroke-linecap="round"/>
<path d="M26.2273 9.25674C27.4326 8.70555 28.6379 8.15435 29.516 7.70137C30.3941 7.24839 30.9086 6.91032 31.4386 6.56201" stroke="#EDEDED" stroke-linecap="round"/>
</svg>
