<svg width="30" height="30" viewBox="0 0 30 30" fill="none" xmlns="http://www.w3.org/2000/svg">
<path d="M3.09357 21.8819C3.38849 22.0282 3.72 22.4351 4.03489 22.8964C4.2788 23.2536 4.58926 23.5062 4.82958 23.7659C5.10502 24.0636 5.30994 24.4486 5.5594 24.8832C5.80435 25.31 6.36324 25.3733 6.59441 25.6413C6.97004 26.0768 7.85893 26.3889 8.19266 26.5474C8.48078 26.6843 8.83794 26.9621 9.26397 27.1478C9.69888 27.3374 10.0764 27.4621 10.4101 27.573C10.7105 27.6728 11.0565 27.7571 11.6558 27.9054C12.6519 28.1518 13.5323 28.3303 14.3703 28.552C15.9371 28.9667 16.4694 28.3136 16.896 28.2111C17.2787 28.1191 17.7267 27.9256 18.2445 27.7587C18.6309 27.6342 19.0206 27.4444 19.4827 27.2784C19.9177 27.122 20.6626 26.818 21.1186 26.5394C21.5484 26.2768 22.1616 26.0596 22.5134 25.773C23.126 25.2738 23.6396 25.0251 24.1211 24.8114C24.5147 24.6367 24.9158 24.3399 25.2758 23.9995C25.9328 23.3785 26.3571 22.9196 26.6714 22.5025C27.2793 21.6958 27.7253 20.5724 27.8642 20.0084C27.9797 19.539 28.0768 19.2408 28.2337 18.8256C28.479 18.1763 28.2431 17.5068 28.2894 16.6458C28.3158 16.1542 28.538 15.5831 28.622 15.1111C28.7091 14.6212 28.8163 13.8313 28.6783 13.1799C28.5744 12.6897 28.5945 12.1272 28.4568 11.6374C28.2428 10.8767 27.3794 9.84207 26.9325 9.11446C26.6451 8.64644 26.1769 7.95389 25.4405 6.91251C24.036 4.92666 23.4023 4.66094 23.0708 4.40177C22.6691 4.08768 22.2947 3.79169 21.8978 3.51506C21.2976 3.09678 20.8356 2.9047 20.4836 2.71067C20.0918 2.49471 19.616 2.4612 19.264 2.23031C18.9315 2.01225 18.4707 2.07314 18.0906 1.88826C17.671 1.68412 16.9395 1.62965 15.8845 1.35274C15.2587 1.18848 14.6998 1.01984 13.6402 1.00044C12.8719 0.98637 12.0777 1.31476 11.311 1.5354C10.24 1.8436 9.85909 1.90572 8.75229 2.41214C8.21799 2.65661 7.77023 3.08653 7.41903 3.29137C6.98762 3.543 6.58831 3.97352 6.24543 4.17836C5.85707 4.41037 5.64477 4.69531 5.21154 5.27573C4.59131 6.10666 4.05706 6.79859 3.46555 7.6221C2.86121 8.46347 2.63344 8.88856 2.4566 9.3606C2.231 9.96277 1.78193 10.4596 1.66191 10.8394C1.46961 11.4478 1.5236 12.584 1.47675 13.0289C1.42616 13.5093 1.35728 13.9522 1.15411 15.0401C0.957621 16.0922 0.968118 17.02 1.07899 17.3349C1.18032 17.6227 1.44709 18.3284 1.58735 18.896C1.70577 19.3753 1.94603 19.8296 2.18745 20.2262C2.46745 20.6862 2.44607 21.2332 2.57551 21.5481C2.63067 21.6224 2.72214 21.6956 2.77841 21.7699C2.83468 21.8442 2.85297 21.9173 2.92726 22.159" stroke="#EDEDED" stroke-width="2" stroke-linecap="round"/>
<path d="M8.07632 12.0818C8.14214 12.0818 8.95487 12.0818 10.1349 12.1476C10.5409 12.1702 10.5361 12.3451 10.5471 12.4403C10.5932 12.8405 10.7023 13.4972 10.763 13.8756C10.7879 14.0308 10.835 14.1643 10.8848 14.4887C10.9991 15.2324 10.9237 15.815 10.957 16.085C11.0635 16.9501 10.9018 17.2873 10.8742 17.5933C10.8517 17.8423 10.8572 18.0864 10.8576 18.4017C10.8581 18.8863 10.7582 19.3495 10.7632 19.7306C10.7653 19.8911 10.7688 20.1214 10.7304 20.3388C10.692 20.5562 10.6152 20.7536 10.2082 20.8553C9.09591 21.1333 8.29804 20.9132 8.27045 20.8193C8.20113 20.5833 8.16541 20.3155 8.11521 19.8689C7.94476 18.3523 8.04308 18.0551 8.00452 17.8278C7.98233 17.6969 7.94336 17.0297 7.95981 16.0991C7.96868 15.5974 8.07632 15.2962 8.1315 14.7999C8.12086 13.2904 8.07632 13.0245 8.03228 12.7532C8.01017 12.6808 7.97726 12.615 7.94336 12.4474" stroke="#EDEDED" stroke-width="2" stroke-linecap="round"/>
<path d="M8.1761 7.95997C8.30773 7.71864 8.40845 7.52851 8.50219 7.40685C8.83414 6.97603 9.73708 7.3058 9.95929 7.43859C10.1956 7.57982 10.4458 8.06767 10.6409 8.35819C10.8002 8.59545 10.8353 9.15331 10.7637 9.44965C10.7155 9.64904 10.5036 9.78754 10.3098 9.88211C10.1363 9.96677 9.37941 9.98765 8.86966 9.87762C8.39439 9.77504 8.17809 9.38001 7.70126 9.05242C7.47748 8.89869 7.4448 8.63675 7.38414 8.37648C7.35941 8.27035 7.34508 8.18202 7.36702 8.10457C7.52192 8.02645 7.68779 8.00451 7.90834 7.97127C8.05211 7.95997 8.26053 7.95997 8.47526 7.95997" stroke="#EDEDED" stroke-width="2" stroke-linecap="round"/>
<path d="M12.6301 12.1151C12.5969 12.2696 12.5749 12.5126 12.5801 13.5843C12.583 14.1846 12.7298 14.3967 12.7684 14.5852C12.8231 14.8525 12.8954 15.0948 12.9183 15.5259C12.9422 15.9743 12.8076 16.3679 12.7908 16.635C12.7741 16.9016 12.7192 17.2328 12.7131 18.481C12.7094 19.2319 12.8402 19.6261 12.9068 19.9145C13.0035 20.3325 12.93 20.9119 12.8078 21.0673C12.5141 21.4408 14.3905 21.2669 14.6402 21.3171C14.7111 21.3313 14.8001 21.3227 14.8453 21.3008C14.9972 21.2271 14.957 20.9032 15.0452 20.6257C15.1244 20.3767 15.189 20.0396 15.2119 19.364C15.2249 18.9818 15.1783 18.6542 15.2006 18.2107C15.2186 17.8525 15.3439 17.3684 15.4386 17.0747C15.5787 16.6406 15.6324 16.3047 15.6715 16.0936C15.7203 15.8299 15.8644 15.6173 15.9429 15.4177C16.0175 15.2279 16.2414 15.1406 16.441 15.0627C16.6414 14.9844 16.9933 14.874 17.2554 14.8189C17.3056 14.8083 17.3603 14.8076 17.3995 14.8295C17.5739 14.927 17.7153 15.1061 17.9421 15.4155C18.1907 15.7546 18.3023 16.0687 18.4358 16.2751C18.5594 16.4663 18.7125 16.7894 18.774 17.1931C18.9102 18.0876 18.8129 18.4288 18.9011 18.8001C19.0776 19.5425 19.0562 19.9353 19.1227 20.8431C19.1396 21.0745 20.0029 21.0678 21.0001 21.0295C21.3425 21.0164 21.3392 20.8707 21.3337 20.7703C21.3142 20.4144 21.3279 20.1055 21.4219 19.8006C21.5811 19.2851 21.5712 18.8875 21.7209 18.3716C21.8013 18.0947 21.8371 17.8232 21.9648 17.5233C22.1234 17.1506 22.125 16.6378 22.1923 16.2936C22.2626 15.9341 22.2034 15.6619 22.1758 15.473C22.1501 15.2966 22.1369 14.9212 22.0377 14.5042C21.9481 14.1275 21.5625 13.7139 21.3453 13.4066C21.2023 13.2043 20.9423 12.9148 20.554 12.6092C20.164 12.3022 19.955 12.2374 19.6673 12.2038C19.2932 12.1602 18.8162 11.9828 17.626 11.9598C17.2193 11.952 16.986 12.1151 16.1679 12.5344C15.8098 12.718 15.5234 12.7792 15.3123 12.9233C15.2536 12.9634 15.191 13.0225 15.1461 13.0727C15.1012 13.1229 15.0793 13.1668 15.068 12.97C15.0567 12.7732 15.0567 12.3345 15.0512 12.081C15.0457 11.8275 15.0347 11.7727 14.7439 11.7444C14.453 11.7162 13.8826 11.7162 13.2949 11.7162" stroke="#EDEDED" stroke-width="2" stroke-linecap="round"/>
<path d="M19.1455 19.9598C20.0752 19.495 20.4512 19.164 20.6959 18.8638C20.8501 18.7312 21.0392 18.5537 21.2272 18.3655C21.3165 18.2871 21.3932 18.2432 21.4724 18.198" stroke="#EDEDED" stroke-linecap="round"/>
<path d="M19.1455 18.597C19.1894 18.575 19.2333 18.5531 19.4972 18.3498C19.7611 18.1466 20.2438 17.7626 20.6021 17.4387C20.9604 17.1148 21.1798 16.8625 21.4391 16.6025" stroke="#EDEDED" stroke-linecap="round"/>
<path d="M18.9792 17.0014C19.0889 16.9356 19.4745 16.4848 20.0115 15.8149C20.2962 15.4849 20.5289 15.2852 20.8274 15.0639C20.9724 14.9634 21.104 14.8866 21.2396 14.8075" stroke="#EDEDED" stroke-linecap="round"/>
<path d="M18.115 15.4392C18.1369 15.4392 18.587 14.781 19.2902 13.7454C19.5546 13.368 19.6314 13.2912 19.7916 13.1584C19.9519 13.0256 20.1932 12.8391 20.4418 12.647" stroke="#EDEDED" stroke-linecap="round"/>
<path d="M16.5859 15.0734C16.5859 15.0295 16.9479 14.5901 17.5458 13.9201C17.8803 13.5902 18.1027 13.3575 18.302 13.081C18.3806 12.958 18.4135 12.8702 18.4474 12.7466" stroke="#EDEDED" stroke-linecap="round"/>
<path d="M13.1289 20.3588C13.4141 20.1174 13.6993 19.8761 13.9175 19.686C14.1358 19.4958 14.2784 19.3642 14.3683 19.258C14.4582 19.1518 14.4911 19.075 14.5915 18.9626" stroke="#EDEDED" stroke-linecap="round"/>
<path d="M13.1624 18.8629C13.294 18.7312 13.6799 18.3563 14.2277 17.8196C14.4574 17.5901 14.589 17.4475 14.6678 17.3521C14.7466 17.2567 14.7685 17.2128 14.7911 17.1676" stroke="#EDEDED" stroke-linecap="round"/>
<path d="M13.262 17.2009C14.2711 15.7748 14.8459 14.9415 15.0277 14.6932C15.5108 14.0334 15.7756 13.8229 15.9319 13.5949C16.0981 13.5002 16.2639 13.4011 16.4022 13.2574C16.4637 13.1904 16.5076 13.1355 16.586 13.0458" stroke="#EDEDED" stroke-linecap="round"/>
<path d="M13.262 14.1094C13.613 13.9339 14.1229 13.5473 14.6489 13.0821C14.8459 12.9131 14.9007 12.8802 14.9454 12.8468C14.9901 12.8134 15.0231 12.7805 15.057 12.7466" stroke="#EDEDED" stroke-linecap="round"/>
<path d="M13.0293 13.1787C13.3584 12.8496 13.5828 12.6033 13.6823 12.4705C13.727 12.4145 13.7599 12.3816 13.7988 12.3317C13.8377 12.2819 13.8816 12.216 13.9268 12.115" stroke="#EDEDED" stroke-linecap="round"/>
<path d="M8.64136 14.4419C8.70717 14.398 9.07016 14.167 9.61813 13.7964C9.93575 13.5245 10.0813 13.4005 10.1698 13.3619C10.2143 13.3343 10.2582 13.2904 10.3366 13.2452" stroke="#EDEDED" stroke-linecap="round"/>
<path d="M8.30908 16.5361C8.35296 16.5361 8.96791 16.3497 9.88186 16.0452C10.2035 15.9272 10.2364 15.8833 10.2698 15.8442C10.3032 15.8052 10.3361 15.7723 10.4697 15.6719" stroke="#EDEDED" stroke-linecap="round"/>
<path d="M8.50854 18.4973C9.36416 18.1463 9.88172 17.9326 10.031 17.8553C10.1034 17.8109 10.1692 17.756 10.2251 17.7168C10.2809 17.6776 10.3248 17.6557 10.37 17.6331" stroke="#EDEDED" stroke-linecap="round"/>
<path d="M8.27588 20.6578C8.58302 20.4604 9.15809 20.1064 9.80611 19.7077C10.0373 19.5612 10.0702 19.5283 10.1036 19.4894C10.137 19.4505 10.1699 19.4067 10.2038 19.3615" stroke="#EDEDED" stroke-linecap="round"/>
<path d="M8.70801 9.02367C9.00418 8.85913 9.30036 8.69459 9.54617 8.55498C9.79199 8.41537 9.97847 8.30567 10.0965 8.22723C10.2145 8.14878 10.2584 8.1049 10.3036 8.05969" stroke="#EDEDED" stroke-linecap="round"/>
</svg>
