<svg width="34" height="33" viewBox="0 0 34 33" fill="none" xmlns="http://www.w3.org/2000/svg">
<path d="M2.56456 20.1442C3.21085 20.1442 3.62842 20.1788 4.18868 20.2053C4.71555 20.2302 5.20218 20.353 5.56231 20.45C5.90944 20.5436 6.33948 20.5114 6.86355 20.642C7.85029 20.888 8.31665 20.8083 9.15756 20.8608C9.91066 20.9077 11.3314 20.8786 12.1147 20.8699C13.4729 20.8549 14.4527 20.7223 14.8994 20.6079C15.0128 20.5789 15.1347 20.5471 16.5041 20.5292C17.8736 20.5114 20.4876 20.5114 21.9381 20.4941C23.597 20.4743 23.9142 20.4065 24.2274 20.3805C25.35 20.2874 25.9947 19.8305 26.466 19.6901C27.0933 19.5034 27.5663 19.2891 27.9535 19.1304C28.2812 18.9961 28.5652 18.7288 29.0976 18.545C29.6378 18.3584 29.7895 17.9944 30.104 17.8105C30.4627 17.6009 30.524 17.1907 30.9255 16.7278C31.451 16.1221 31.3287 15.5992 31.4252 15.2319C31.5272 14.8441 31.6434 14.3234 31.8619 13.9554C32.1496 13.4708 31.9068 12.5576 31.8543 12.1631C31.7843 11.6362 31.4525 11.1926 31.3473 10.7908C31.2181 10.2973 30.9992 9.53598 30.6834 8.92851C30.3764 8.33793 30.1935 7.87095 29.8444 7.32013C29.5818 6.90587 29.3384 6.15975 28.7957 5.40565C28.4459 4.91954 28.0081 4.40868 26.4482 3.36134C25.8936 2.98895 25.0578 2.57367 24.3373 2.26548C23.6058 1.9526 22.9584 1.88856 21.3075 1.57539C20.9038 1.49881 20.6334 1.36608 20.1099 1.26063C19.5863 1.15519 18.8246 1.05132 17.7658 1.01513C16.7069 0.978931 15.3739 1.01355 14.5574 1.05736C13.4785 1.11524 13.1098 1.24122 12.8053 1.32831C12.3152 1.46844 11.6609 1.67716 10.9113 2.06037C10.0206 2.51568 9.45553 2.95452 9.19376 3.10272C8.94919 3.24118 8.18446 3.89406 7.12689 4.77641C6.61846 5.20061 6.25765 5.7149 5.63785 6.35148C5.07852 6.92596 4.85648 7.48275 4.52573 7.90898C3.53853 9.18113 3.14475 10.0501 2.89767 10.6903C2.54782 11.5969 2.28653 12.2177 2.09322 12.9025C1.83994 13.7998 1.51644 14.3895 1.42831 14.8524C1.28456 15.6075 1.20064 16.3965 1.11356 17.0473C1.05015 17.5211 0.938342 17.9042 1.04274 18.2544C1.14722 18.6048 1.28667 18.9534 1.57545 19.4168C1.78783 19.7577 2.28233 19.8284 2.62463 19.9078C2.96514 19.9869 3.22764 20.0739 3.55131 20.1875C3.63052 20.2139 3.69977 20.2313 3.77006 20.2575C3.84036 20.2837 3.9096 20.3183 3.98095 20.354" stroke="#EDEDED" stroke-width="2" stroke-linecap="round"/>
<path d="M11.4302 21.2458C11.3783 22.0846 11.2729 22.6748 11.0552 23.5338C10.9139 24.0913 10.7137 24.8277 10.5479 25.4577C10.3809 26.0925 10.5028 27.0131 10.5558 27.452C10.6097 27.8989 10.7651 28.2386 10.94 28.5016C11.1542 28.8238 11.4796 29.4955 11.7531 29.9005C12.055 30.3474 12.9851 30.3212 13.3261 30.3734C13.6961 30.43 13.9294 30.5835 14.2268 30.7141C14.5817 30.8699 14.9953 30.8972 15.4591 30.9766C16.1167 31.0894 16.9195 31.1773 17.5217 31.2043C18.0297 31.2271 18.4754 30.8993 18.9476 30.6456C19.2777 30.4683 19.5424 30.2698 19.8748 29.9639C20.2037 29.6613 20.5916 29.5353 20.8369 29.3079C21.1999 28.9713 21.4834 28.4872 21.7984 28.067C21.9439 27.873 22.1302 27.3352 22.3923 26.5413C22.6194 25.8529 22.4654 24.8025 22.2296 23.6841C22.0641 22.8989 21.9923 22.6286 21.8614 22.3572C21.7192 22.0622 21.538 21.6676 21.3371 21.3169C21.248 21.1615 21.0832 21.089 21.0131 20.9757C20.995 20.9143 21.0123 20.845 20.9866 20.7488C20.9609 20.6525 20.8917 20.5313 20.8203 20.4065" stroke="#EDEDED" stroke-width="2" stroke-linecap="round"/>
<path d="M15.0498 20.2491C14.6658 20.0749 14.0751 19.5881 13.3646 18.8875C12.9659 18.4944 12.9001 17.8738 12.7159 16.887C12.5758 16.1361 12.8634 15.809 13.0643 15.5464C13.3447 15.18 13.6313 14.8133 13.9645 14.4534C14.3237 14.0654 14.9428 13.9016 15.2759 13.8321C16.1551 13.6486 17.5311 13.7956 18.0555 14.023C18.4803 14.2073 18.7377 14.6507 18.9834 14.95C19.1746 15.1827 19.2287 15.5782 19.2987 15.9548C19.3763 16.372 19.5781 16.854 19.6224 17.5102C19.648 17.8891 19.5623 18.3753 19.3522 18.8311C19.1248 19.1994 18.8804 19.4087 18.5659 19.6015C18.478 19.6369 18.3914 19.6542 18.2498 19.672" stroke="#EDEDED" stroke-width="2" stroke-linecap="round"/>
<path d="M29.8431 17.2065C29.5997 17.2065 28.626 16.9295 28.0257 16.6302C27.6473 16.4416 27.2737 16.0534 26.7066 15.7041C26.3209 15.4665 26.0682 15.1092 25.883 14.7598C25.5818 14.1916 25.3841 13.0664 25.3492 12.609C25.3144 12.152 25.5058 11.8746 25.7154 11.5074C25.9245 11.1409 26.4133 11.0174 26.747 10.8682C27.0823 10.7181 27.5853 10.5799 28.8931 10.5615C29.5764 10.5519 29.9994 10.6838 30.1828 10.7622C30.3142 10.8579 30.4715 11.0153 30.6462 11.2246C30.7171 11.3301 30.7517 11.4339 30.7873 11.6459" stroke="#EDEDED" stroke-width="2" stroke-linecap="round"/>
<path d="M20.6627 1.83606C21.5189 2.81389 21.8672 3.61441 21.9569 4.18647C22.0252 4.62213 21.713 5.2081 21.5029 5.59446C21.3431 5.88826 20.9093 6.17019 20.6027 6.38186C20.2395 6.63259 19.878 6.87104 19.5622 6.96809C19.4285 7.00916 19.2474 6.99432 18.7178 7.02055C17.5491 7.07843 16.6077 6.90829 16.2848 6.6814C15.7199 6.28447 15.3655 5.61623 15.0943 5.24718C14.8016 4.84902 15.0664 4.30476 15.1108 3.88326C15.1558 3.45542 15.4504 2.87054 15.6086 2.51041C15.6608 2.43146 15.7474 2.34491 15.8612 2.25704C15.975 2.16917 16.1135 2.08261 16.3087 1.99344" stroke="#EDEDED" stroke-width="2" stroke-linecap="round"/>
<path d="M5.97436 6.87205C7.7737 6.60975 8.3329 6.64438 8.73579 6.80149C9.17959 6.97456 9.64542 7.51729 9.85552 7.81499C10.234 8.35136 10.3809 8.93367 10.468 9.32685C10.56 9.74233 10.5377 10.1234 10.6164 10.3327C10.802 10.8265 9.6685 11.6416 9.19296 12.0382C8.85388 12.321 8.56372 12.589 8.18838 12.7296C7.78987 12.8788 7.37448 12.7647 6.93121 12.791C6.0912 12.8407 5.12191 12.7479 4.33634 12.5654C3.72389 12.227 3.31786 11.8053 3.09071 11.4386C3.00206 11.2796 2.96743 11.1758 2.93176 11.0687" stroke="#EDEDED" stroke-width="2" stroke-linecap="round"/>
<path d="M1.56812 18.7802C2.29519 18.157 2.77361 17.8186 3.04351 17.7924C3.74974 17.7238 4.03262 17.9398 4.39065 18.0977C4.82009 18.2871 5.15209 18.605 5.26566 18.7007C5.50746 18.9045 5.41438 19.2859 5.41543 19.5487C5.41743 20.0509 4.08823 19.5681 3.61584 19.358C3.37164 19.2534 3.16023 19.1652 3.00312 19.0868C2.93256 19.043 2.88063 18.9911 2.7222 18.8326" stroke="#EDEDED" stroke-width="2" stroke-linecap="round"/>
<path d="M16.7775 19.5609C16.363 19.517 16.2374 19.5044 15.8614 19.3261C15.4582 19.135 15.3324 18.8333 15.1999 18.6249C15.0744 18.4275 15.0299 18.2728 14.9484 18.1501C14.7604 17.8669 14.7783 17.3244 14.8158 17.0533C14.8375 16.8972 14.9473 16.7515 15.0857 16.591C15.1916 16.4684 15.3436 16.3865 15.4782 16.2894C15.6506 16.165 15.8898 16.0845 16.1158 16.0375C16.407 15.9769 16.7568 16.027 17.1206 16.2179C17.3113 16.3179 17.4595 16.5146 17.5585 16.7817C17.7791 17.3776 17.7019 17.8003 17.6705 17.8723C17.6335 17.9573 17.614 18.0704 17.5389 18.1677C17.4063 18.3393 17.1936 18.3599 16.6258 18.3665C16.4075 18.369 16.2751 18.3039 16.1748 18.2318C15.9559 18.0747 15.8417 17.6338 15.7875 17.3236C15.7705 17.2268 15.7402 17.1472 15.762 17.075C15.8164 16.8949 16.2966 16.9204 16.5289 16.9454C16.6556 16.9591 16.6829 17.1841 16.721 17.3097C16.7149 17.3414 16.69 17.3663 16.6523 17.3791C16.6146 17.392 16.5648 17.392 16.5135 17.392" stroke="#EDEDED" stroke-width="0.2" stroke-linecap="round"/>
<path d="M30.263 16.2651C29.5781 16.1458 29.3777 16.0833 29.0669 15.8578C28.7148 15.6023 28.5093 15.3289 28.4372 15.2379C28.2657 15.0216 28.0691 14.7382 27.8997 14.4524C27.8133 14.3066 27.7421 14.1346 27.6887 14.018C27.6317 13.8935 27.6538 13.7197 27.7259 13.4904C27.7541 13.4007 27.7732 13.317 27.8264 13.2137C27.899 13.0725 28.074 12.9462 28.3589 12.8551C28.7455 12.7315 29.0553 12.7885 29.1651 12.7885C29.4125 12.7882 29.7518 13.1135 29.9042 13.3222C30.059 13.5342 30.0615 13.6869 30.09 13.8408C30.1167 13.9851 30.0808 14.1458 30.0464 14.2619C29.9967 14.4294 29.7986 14.5107 29.6411 14.5831C29.4382 14.6765 28.9952 14.5745 28.786 14.4706C28.6415 14.3989 28.6221 14.1599 28.5595 13.9712C28.5199 13.8518 28.5653 13.7506 28.6092 13.7067C28.7413 13.5743 29.0551 13.6748 29.2563 13.7406C29.3088 13.7578 29.3505 13.7876 29.3729 13.8129C29.3954 13.863 29.3829 13.926 29.3641 14.0013C29.3577 14.0392 29.3577 14.0765 29.3011 14.115" stroke="#EDEDED" stroke-width="0.2" stroke-linecap="round"/>
<path d="M17.0982 2.72794C16.5262 3.53857 16.4887 3.68908 16.4883 4.02461C16.4878 4.43327 16.6452 4.60043 16.8428 4.97406C16.9735 5.22134 17.0979 5.31148 17.2265 5.36504C17.4461 5.45649 17.6625 5.50046 18.0112 5.54742C18.1574 5.56712 18.3887 5.55704 18.6194 5.4948C18.85 5.43256 19.0741 5.30808 19.2766 5.16615C19.6699 4.89064 19.8517 4.67719 19.8924 4.59892C20.0565 4.28376 19.9277 3.81016 19.8083 3.59006C19.7262 3.43863 19.6512 3.31941 19.5474 3.18427C19.4386 3.04269 19.3057 2.88599 19.2235 2.75038C19.146 2.62267 18.8975 2.58988 18.5173 2.58016C18.2325 2.57289 17.8976 2.75887 17.7182 2.85327C17.5189 2.95815 17.4758 3.10477 17.391 3.2335C17.3398 3.31116 17.2557 3.37505 17.2055 3.45662C17.1213 3.59316 17.1612 3.77735 17.2424 3.98453C17.2879 4.1006 17.3679 4.32921 17.4219 4.54422C17.4454 4.63776 17.4753 4.70812 17.5222 4.73952C17.6439 4.82091 18.1876 4.80261 18.5842 4.72453C18.9295 4.65653 18.9462 4.31261 19.0625 4.07431C19.1032 3.99085 19.1099 3.91654 19.1226 3.8444C19.1286 3.81012 19.1103 3.77848 19.0914 3.75311C19.0026 3.63364 18.7338 3.64608 18.5013 3.6176C18.4202 3.60766 18.3076 3.61439 18.2499 3.64862C18.1922 3.68285 18.1922 3.75132 18.1984 3.79904C18.261 3.94087 18.3429 4.06045 18.3898 4.12316C18.4181 4.15475 18.4555 4.18587 18.5505 4.21793" stroke="#EDEDED" stroke-width="0.2" stroke-linecap="round"/>
<path d="M4.07031 10.0176C4.33417 10.753 4.42188 10.8531 4.61652 10.9885C4.82958 11.1366 5.30701 11.2494 5.73298 11.3185C5.97659 11.3581 6.28343 11.3503 6.54323 11.3504C7.00847 11.3506 7.31341 11.3254 7.47043 11.2972C7.64687 11.2655 7.8285 11.0497 8.01776 10.8733C8.26099 10.6467 8.45769 10.5465 8.54002 10.408C8.67105 10.1877 8.72212 10.0312 8.80727 9.80466C8.87442 9.62604 8.69156 9.32768 8.5816 9.16614C8.48883 9.02984 8.33358 8.88068 8.13555 8.78251C7.96231 8.69663 7.7059 8.63474 7.04351 8.63125C6.76823 8.6298 6.59821 8.70339 6.39508 8.82513C5.99521 9.0648 5.72421 9.34409 5.63641 9.48535C5.52197 9.6695 5.42866 9.73431 5.41565 9.94442C5.41229 9.99862 5.43432 10.0357 5.47185 10.0674C5.64187 10.2109 5.84209 10.2873 6.00919 10.3537C6.27751 10.4603 6.76437 10.4891 7.04342 10.4641C7.20157 10.45 7.30115 10.2258 7.40205 10.081C7.43907 10.0278 7.4526 9.86181 7.42469 9.63878C7.41318 9.54688 7.31586 9.52157 7.23071 9.50553C7.05456 9.47237 6.92488 9.50195 6.86217 9.53637C6.79946 9.58946 6.74872 9.67132 6.74221 9.76232C6.75438 9.80353 6.79795 9.83465 6.84284 9.86672" stroke="#EDEDED" stroke-width="0.2" stroke-linecap="round"/>
<path d="M17.0952 17.0175C17.0799 17.0634 16.8274 17.4999 16.4262 18.1406C16.2794 18.375 16.2084 18.3992 16.1578 18.4149C16.0717 18.4417 15.9531 18.4154 15.8029 18.3769C15.728 18.3578 15.6603 18.3232 15.4682 17.9978C15.276 17.6725 14.9626 17.0532 14.8393 16.6845C14.7161 16.3158 14.7925 16.2165 14.916 16.1194C15.0395 16.0223 15.2077 15.9306 15.4816 15.8948C16.1248 15.8108 16.6002 15.9285 16.8079 16.0168C16.9365 16.0715 17.092 16.1891 17.1785 16.271C17.2983 16.3844 17.2729 16.6986 17.2155 17.1455C17.1631 17.5532 16.9259 17.789 16.776 17.9774C16.5595 18.2496 16.3467 18.4073 16.2389 18.4344C16.1861 18.4477 16.1311 18.4233 16.0959 18.3772C15.9225 18.1502 16.1213 17.6537 16.4722 17.0543C16.6305 16.8874 16.7396 16.8093 16.8205 16.7745C16.8631 16.7627 16.909 16.7627 16.9562 16.7627" stroke="#EDEDED" stroke-width="3" stroke-linecap="round"/>
<path d="M29.4198 15.9287C28.9076 15.6535 28.3954 15.3782 27.9672 14.8313C27.539 14.2843 27.2103 13.474 27.06 13.0221C26.9098 12.5703 26.948 12.5015 26.9945 12.4507C27.2058 12.2199 27.6423 12.1989 28.1261 12.2371C28.4658 12.264 28.9922 12.3518 29.306 12.4332C29.6198 12.5147 29.7039 12.5988 29.7778 12.7529C29.9504 13.1131 29.9835 13.6401 29.9721 14.1451C29.9636 14.5256 29.8218 14.7236 29.7333 14.7931C29.6437 14.8634 29.49 14.7938 29.3705 14.7361C29.2195 14.5853 29.1189 14.5081 29.0612 14.4465C29.0265 14.4155 28.9806 14.3849 28.9334 14.3534" stroke="#EDEDED" stroke-width="3" stroke-linecap="round"/>
<path d="M19.5799 4.32823C18.5708 4.83279 18.028 5.06978 17.9436 4.95858C17.7683 4.7277 17.6421 4.3229 17.6186 3.87209C17.6074 3.65805 17.7021 3.47479 17.7758 3.37263C17.8494 3.27047 17.9259 3.25518 18.2366 3.25112C18.5474 3.24707 19.0902 3.25471 19.3889 3.28541C19.6877 3.3161 19.7259 3.36962 19.7456 3.42394C19.7829 3.527 19.6124 3.83155 19.354 4.23279C19.1141 4.60519 18.7705 4.72159 18.6036 4.76839C18.5687 4.76098 18.5305 4.7304 18.4917 4.69171C18.4529 4.65302 18.4147 4.60715 18.3521 4.55989" stroke="#EDEDED" stroke-width="3" stroke-linecap="round"/>
<path d="M17.773 4.58317C17.7654 4.58317 17.7577 4.58317 17.5971 4.5717C17.4364 4.56024 17.123 4.5373 16.8 4.51367" stroke="#EDEDED" stroke-width="3" stroke-linecap="round"/>
<path d="M5.81935 9.7028C6.17101 9.45053 6.52267 9.19825 6.66943 9.3435C6.81619 9.48875 6.74739 10.0392 6.61638 10.3724C6.41904 10.8744 5.98267 10.9457 5.68661 11.0074C5.50755 11.0447 5.26058 11.0386 5.18425 10.9278C5.10792 10.8171 5.2073 10.5878 5.36935 10.3282C5.5314 10.0686 5.7531 9.78574 5.9514 9.59416C6.28455 9.27229 6.71287 9.15516 7.12523 9.07396C7.46232 9.00758 7.74098 9.13106 7.995 9.22709C8.61486 9.46141 8.76886 9.8564 8.81519 10.0067C8.83525 10.0718 8.83095 10.1189 8.79272 10.1769C8.69867 10.3197 8.25527 10.5887 7.70727 10.9359C7.44235 11.1038 7.35642 11.1623 7.28704 11.1432C7.20932 10.8553 7.23225 10.3985 7.27847 10.2828C7.30175 10.2359 7.32468 10.2129 7.41781 10.1893" stroke="#EDEDED" stroke-width="3" stroke-linecap="round"/>
<path d="M16.4746 20.2823C15.6692 20.0408 15.282 19.8796 14.7907 19.2687C14.2115 18.5486 13.9916 17.896 13.9013 17.5408C13.7703 17.0251 13.9567 16.0742 14.1266 15.6853C14.1605 15.6076 14.1513 15.5243 14.1752 15.4592C14.1992 15.3941 14.2471 15.3462 14.3117 15.3215C14.5859 15.2168 14.8599 15.1845 15.1825 15.1277C16.1696 14.9537 17.6992 15.0703 17.9339 15.2477C18.2028 15.4509 18.3778 15.7954 18.4748 16.1344C18.5986 16.5669 18.7011 16.9086 18.8216 17.352C18.9686 17.8927 18.3168 18.5514 17.9843 19.0383C17.5571 19.6638 17.2979 19.9106 17.1614 20.0154C17.084 20.0748 16.9451 20.0722 16.8233 20.0565C16.5833 20.0255 16.3308 19.7518 16.113 19.3176C15.9993 19.091 16.039 18.7876 16.0629 18.6156C16.0869 18.4435 16.1348 18.3956 16.2154 18.3549C16.5916 18.1651 17.0051 18.201 17.2955 18.2729C17.5257 18.3298 17.3623 18.7804 17.2899 19.0381C17.2324 19.2432 17.0404 19.4101 16.8311 19.5792C16.7362 19.6559 16.6537 19.7005 16.5886 19.6533C16.4089 19.5231 16.4262 19.1385 16.4581 18.8004C16.4883 18.4811 16.6677 18.2983 16.7803 18.2177C16.9042 18.1289 17.1348 18.1526 17.1048 18.1526C16.4998 18.1526 15.9591 18.1206 15.7982 18.0403C15.4395 17.8612 15.4427 17.2513 15.4819 16.7668C15.528 16.1962 16.2156 15.9266 16.3686 15.8539C16.4383 15.8209 16.5056 15.8293 16.6104 15.9171C17.1906 16.4035 17.3129 17.0848 17.3139 17.988C17.3141 18.1709 17.2181 18.232 17.1292 18.2729C16.9398 18.3601 16.5259 18.3462 16.0583 18.3063C15.8746 18.2906 15.8144 18.1865 15.7815 18.1134C15.5979 17.7057 15.7157 16.7053 15.8609 16.2337C15.9077 16.0814 16.0869 15.9914 16.1914 15.8464C16.2881 15.7124 16.5535 15.6841 16.8596 15.7C17.4363 15.7301 18.1329 16.8893 18.3541 17.4091C18.3861 17.4843 18.3623 17.5543 18.2425 17.5872C17.8945 17.6829 17.5724 17.6042 17.4197 17.556C17.2136 17.491 17.024 17.3307 16.863 17.1056C16.6038 16.5243 16.4756 15.8176 16.2904 14.9205C16.1547 14.7649 15.8831 14.717 15.6034 14.6676" stroke="#EDEDED" stroke-width="3" stroke-linecap="round"/>
<path d="M4.66451 19.7499C3.42443 19.7499 2.89055 19.7179 2.74559 19.6376C2.67463 19.5983 2.63257 19.5253 2.61587 19.4525C2.58175 19.3036 2.69549 19.1376 2.82424 19.0086C3.46606 18.927 4.46993 18.975 4.65507 19.0476C4.74437 19.0723 4.82423 19.0723 4.90652 19.1207" stroke="#EDEDED" stroke-width="3" stroke-linecap="round"/>
<path d="M4.03518 11.0374C4.63198 9.66667 4.76024 9.28139 5.04243 8.77243C5.35929 8.20094 6.00225 7.84383 6.26072 7.69015C6.39493 7.61036 6.50322 7.50453 6.71958 7.43193C7.5387 7.15705 8.09808 7.50405 8.72804 7.78502C9.17223 7.98314 9.32557 8.64635 9.464 9.00356C9.56481 9.2637 9.66535 9.51953 9.63437 10.1795C9.61678 10.5543 9.21521 10.8099 8.95021 11.1398C8.61487 11.5572 7.67165 11.6826 6.65593 11.7308C5.85981 11.7685 5.42529 12.0529 4.90013 12.1584C4.7247 12.1937 4.50468 12.2475 4.22274 12.1916C4.09091 12.1654 4.02066 12.0239 3.97951 11.8704C3.8895 11.5347 3.95434 11.2001 4.03445 10.9665C4.11743 10.7246 4.45337 10.5389 4.83067 10.1451C5.39676 9.55435 6.1615 9.07132 6.69368 8.70854C7.11087 8.42416 7.45433 8.11876 8.32339 8.04446C8.51911 8.02773 8.59953 8.06842 8.66463 8.10061C8.72973 8.13279 8.77765 8.18071 8.80234 8.29325C8.82702 8.40578 8.82702 8.58149 8.82702 8.76251" stroke="#EDEDED" stroke-width="3" stroke-linecap="round"/>
<path d="M16.3294 4.45471C16.1842 3.85839 16.2481 3.537 16.305 3.22964C16.3874 2.78425 17.0061 2.61639 17.3285 2.46271C17.6479 2.3104 17.9412 2.0675 19.1402 2.04257C19.5896 2.03323 19.7815 2.09896 19.8863 2.1631C20.1296 2.31201 20.1687 2.64639 20.29 2.90486C20.4021 3.14403 20.5559 3.37243 20.7094 3.72722C20.8597 4.07486 20.9431 4.42083 20.9441 4.86444C20.9449 5.22702 20.4611 5.27659 20.1385 5.36613C19.776 5.46674 19.5414 5.58346 18.7128 5.89759C18.1086 6.12662 17.6866 6.08394 16.4633 6.05248C16.1969 6.04563 16.1213 5.90872 16.0802 5.77949C15.9222 5.28345 15.9587 4.94067 16.0146 4.61734C16.1053 4.09265 16.0226 3.56895 16.1997 3.23013C16.4865 2.68154 16.3778 2.26208 16.5061 1.97094C16.5758 1.81268 17.1484 1.88938 17.7692 1.94528C18.5708 2.01748 18.4911 3.48473 18.636 3.90462C18.7867 4.34101 18.798 4.87291 18.9424 5.16357C19.0862 5.4527 19.2495 5.69623 19.2498 5.85717C19.2499 5.93976 19.1861 6.01811 19.1135 6.08321C18.9625 6.21863 18.7026 6.2456 18.365 6.1897C17.9315 6.02198 17.525 5.71511 17.283 5.38477C17.2007 5.24609 17.2007 5.16623 17.2007 5.08394" stroke="#EDEDED" stroke-width="3" stroke-linecap="round"/>
<path d="M30.1726 16.0713C30.2046 16.1032 30.2365 16.1352 30.221 16.1756C30.0855 16.5293 29.2869 16.2813 28.9718 16.1766C28.652 16.0702 28.2385 15.7344 27.883 15.4912C27.4831 15.2176 27.1088 14.959 26.7535 14.8133C26.6725 14.7801 26.6083 14.7489 26.5594 14.6925C26.3404 14.4399 26.3498 13.9919 26.3084 13.6042C26.2878 13.4107 26.3488 13.1047 26.3808 12.7661C26.4174 12.3784 27.1204 12.1526 27.4771 12.0137C27.9813 11.8174 28.7825 11.5553 29.9021 11.497C30.506 11.4655 30.9122 11.6821 31.2525 11.7789C31.774 11.9273 31.5918 12.7296 31.6007 13.519C31.6064 14.0185 31.3023 14.3433 31.2779 14.6182C31.2531 14.8973 31.1891 15.2146 31.1087 15.61C31.0906 15.6992 31.0923 15.7634 31.0284 15.7884C30.9645 15.8133 30.8367 15.7973 30.7389 15.7332C29.9383 15.208 30.5434 13.2823 30.5599 12.99C30.5846 12.5497 30.0942 14.0994 29.6901 14.5454C29.5369 14.7144 29.2385 14.716 28.9725 14.6841C28.5812 14.6371 28.5115 13.8796 28.5187 13.3786C28.5204 13.2646 28.5269 13.1691 28.6148 13.0798C28.8344 12.8565 29.1233 12.8283 29.268 12.8682C29.3549 12.8922 29.4447 12.988 29.51 13.0691C29.5753 13.1502 29.6073 13.2301 29.5838 13.359C29.5262 13.6756 29.2864 13.9087 29.0451 14.0294C28.9186 14.0927 28.7719 14.1342 28.6499 14.1509C28.5279 14.1676 28.4321 14.1516 28.3188 14.0076C28.0218 13.6301 27.9461 13.1366 28.01 12.8225C28.1192 12.2856 28.768 12.4575 28.8653 12.4251C29.2653 12.2918 27.739 12.4575 27.3745 12.3288C27.0349 12.2088 26.9301 11.8932 26.9214 11.7564C26.907 11.5306 27.5076 11.4576 27.7675 11.3607C28.124 11.228 26.8188 11.4876 26.4882 11.7615C26.3653 11.8758 26.3333 11.9396 26.2131 12.1163C26.0928 12.293 25.8851 12.5805 25.7196 12.9251" stroke="#EDEDED" stroke-width="3" stroke-linecap="round"/>
</svg>
