<svg width="27" height="28" viewBox="0 0 27 28" fill="none" xmlns="http://www.w3.org/2000/svg">
<path d="M12.4677 25.1511C12.7086 25.1511 13.5403 25.1511 14.6652 25.1436C15.3878 25.1388 15.8713 25.0453 16.2535 24.9917C16.6227 24.9399 17.0886 24.7414 17.6361 24.4604C18.3688 24.0843 18.9428 23.7851 19.356 23.4942C19.702 23.2507 20.2359 22.9328 20.709 22.514C21.2252 22.057 21.5918 21.6699 21.9331 21.3282C22.7049 20.5553 22.8383 20.073 23.0142 19.5034C23.132 19.1219 23.3712 18.9014 23.4707 18.6354C23.6101 18.2624 23.9799 17.8374 24.1621 17.5178C24.3781 17.1392 24.573 16.8346 24.7705 16.4305C24.9412 16.0815 24.938 15.6939 24.9841 15.2142C25.0327 14.7075 25.1971 14.1126 25.2729 13.7914C25.3366 13.5212 25.3796 12.4308 25.1828 11.428C25.0817 10.9133 24.8787 10.3704 24.8095 9.96705C24.7178 9.43196 24.437 8.84923 24.3232 8.48423C24.1817 8.03073 23.9662 7.73872 23.7834 7.43462C23.552 7.04942 23.3274 6.67474 23.0464 6.27917C22.6794 5.7627 22.4906 5.38172 22.1948 4.96356C21.9332 4.59396 21.4887 4.36245 20.0319 3.45223C19.4906 3.11401 19.191 2.94807 18.8641 2.81028C18.5846 2.69245 18.2338 2.53744 17.9058 2.42247C17.5251 2.28905 16.9709 2.18704 16.6741 2.11062C16.2496 2.00131 15.7564 1.9288 15.3054 1.7536C14.973 1.62449 14.5081 1.5638 13.9161 1.44951C13.0346 1.27934 12.3473 1.07652 12.0518 1.0309C11.2768 0.911206 10.8416 1.16686 10.5754 1.32655C10.1254 1.59647 9.48838 1.63771 8.99471 1.90394C8.68581 2.07052 8.40843 2.26187 7.97727 2.50368C7.2013 2.93888 6.70433 3.35687 6.55285 3.47071C6.3661 3.61105 5.58468 4.09783 4.58891 4.86547C3.9187 5.38214 3.5425 6.07613 3.04838 6.76074C2.16437 7.98554 2.14181 8.45047 1.80053 8.95965C1.41507 9.53475 1.33515 9.98713 1.21402 10.3216C1.15008 10.4981 1.12254 10.687 1.07691 11.2681C0.968956 12.6429 1.04635 13.6225 1.02353 13.9999C0.926092 15.6116 1.15265 16.1 1.31166 16.587C1.44283 16.9888 1.53225 17.4541 1.58586 17.7662C1.64527 18.112 1.83703 18.5017 1.9203 18.9901C1.99515 19.4292 2.2472 19.766 2.6544 20.4606C2.99127 21.0353 3.69397 21.9984 4.30649 22.7134C4.91901 23.4283 5.44598 23.8499 5.9433 24.1875C6.86285 24.8118 7.7642 25.1648 8.42531 25.4005C8.90709 25.5722 9.79863 25.7269 10.739 25.8506C11.207 25.9121 11.5077 25.9569 11.9111 25.9874C12.1009 26.0326 12.2843 26.0787 12.4513 26.1015C12.5279 26.1093 12.5882 26.1093 12.6502 26.1093" stroke="#D8D8D8" stroke-width="2" stroke-linecap="round"/>
<path d="M8.54403 19.813C9.08606 19.5119 9.65135 19.2514 10.3182 18.9411C11.2131 18.5248 12.0681 17.9743 12.752 17.7086C13.1257 17.5634 13.785 17.1243 14.75 16.6152C15.2681 16.3417 16.0357 15.8934 16.9858 15.2398C17.5856 14.8272 17.805 14.6127 18.7299 13.9755C19.1988 13.6525 19.5835 13.3817 19.964 13.107C20.0638 13.035 20.1912 12.9857 20.2307 12.917C20.2702 12.8484 20.225 12.7731 20.149 12.7343C19.8202 12.5664 19.4503 12.5595 18.9639 12.2331C18.6393 12.0152 18.1586 11.8747 17.665 11.7837C16.7888 11.6221 15.907 10.9015 15.3139 10.5222C14.8894 10.2506 14.3549 9.97351 13.8539 9.71595C13.1936 9.37647 12.6667 9.01538 12.1585 8.63646C11.5729 8.19989 10.9202 8.13481 10.5452 7.90555C10.0571 7.60718 9.62535 7.43401 9.28293 7.31972C9.12742 7.26781 8.89534 7.26611 8.66722 7.31881C8.30785 7.40182 8.51392 8.13025 8.47582 8.57236C8.42801 9.12717 8.40715 9.75633 8.44502 10.4412C8.48999 11.2544 8.46783 11.8583 8.49065 12.1079C8.53119 12.5514 8.54357 12.9829 8.61954 13.6176C8.7738 14.9063 8.71102 15.8277 8.75664 16.1601C8.9347 17.4572 8.59057 17.9561 8.3775 18.4272C8.3013 18.6551 8.27028 19.1401 8.29286 19.7405C8.31545 19.9645 8.36062 20.0247 8.4984 20.178" stroke="#D8D8D8" stroke-width="2" stroke-linecap="round"/>
<path d="M8.7965 6.17976C9.12194 6.1938 9.57331 6.22231 10.0074 6.29292C10.451 6.36506 10.8785 6.44862 11.3332 6.53392C11.6964 6.60204 11.9573 6.76088 12.2836 6.85298C12.5938 6.94053 12.9068 7.07228 13.3327 7.34859C13.6923 7.58195 14.1125 7.76656 14.9265 8.17772C15.1445 8.28782 15.4725 8.53188 16.1368 8.88561C16.903 9.29361 17.6004 9.41248 17.9967 9.51841C18.622 9.68556 18.9903 9.85194 19.3315 9.98679C19.6177 10.0999 20.0538 10.319 20.6704 10.6243C21.0676 10.8209 21.473 11.1137 21.721 11.2275C22.0085 11.3594 22.1392 11.6242 22.303 11.8933C22.5535 12.3048 22.0847 12.9141 21.8929 13.1485C21.6213 13.4802 21.5172 13.8074 21.3679 14.0491C21.247 14.2447 21.1633 14.5306 20.8934 14.7653C20.6841 14.9472 20.3695 15.1126 20.0357 15.297C19.7232 15.4697 19.4344 15.7643 19.0926 15.9141C18.6647 16.1015 18.2849 16.5301 17.9652 16.7647C17.6743 16.9782 17.2222 17.3528 16.8453 17.5798C16.2861 17.9165 15.5938 18.4844 14.9601 18.9477C14.2232 19.4865 13.7755 19.8339 13.3784 20.0829C12.9074 20.3783 12.33 20.5579 11.9601 20.6787C11.3848 20.8666 10.8827 21.0973 10.3654 21.2954C10.0071 21.4325 9.59287 21.4513 8.79948 21.6146C8.39781 21.6973 8.08946 21.7355 7.55067 21.7289C7.3151 21.726 7.15227 21.5942 7.0389 21.5166C6.71285 21.2933 7.02337 20.5885 7.03826 19.6056C7.04746 18.9986 7.02422 18.6036 7.04507 18.1294C7.08846 17.1426 7.09484 16.9155 7.16546 16.5269C7.36245 15.4429 7.30755 15.0582 7.18056 14.6047C7.09292 14.2917 7.02422 14.0227 6.95339 13.6968C6.86838 13.3057 6.81152 13.0306 6.79003 12.6405C6.76845 12.2486 6.75451 11.8267 6.7192 11.4489C6.67889 11.0176 6.83959 9.94468 6.76898 9.32251C6.68805 8.60952 6.93829 8.23792 6.98828 7.8191C7.04829 7.31627 7.26416 6.62134 7.41348 6.29462C7.63347 5.81327 7.5628 5.37403 7.73233 4.88395C7.7951 4.70247 7.80316 4.43727 7.93057 4.16096C8.06334 3.87302 8.55316 3.65791 9.03579 3.46477C9.52278 3.26989 10.1119 3.03255 10.5394 2.97512C10.9117 2.92511 11.2767 2.876 11.6802 2.79091C12.0732 2.70805 12.4819 2.80453 12.9194 2.90322C13.616 3.06035 14.4643 3.4686 15.229 3.92188C16.0464 4.40644 16.7892 4.61764 17.3458 4.89565C17.7744 5.10967 18.2807 5.37062 18.6929 5.61864C19.4423 6.06949 20.5362 6.34823 20.757 6.67473C21.1393 7.24008 21.0484 8.20473 21.1614 8.80095C21.2845 9.45112 21.3888 10.3029 21.3324 10.7727C21.2868 11.1527 21.2331 11.5093 21.1414 11.7946C21.1161 11.8732 20.9097 11.8097 20.3599 11.6551C19.81 11.5004 18.8695 11.2056 18.2937 11.0186C17.5321 10.7713 17.2771 10.633 16.9953 10.4145C16.4361 9.9811 15.9868 9.58435 15.6416 9.21743C15.0156 8.55207 14.4128 8.22218 14.0676 7.99692C13.3468 7.5266 12.7826 7.01783 12.5278 6.77704C12.1601 6.42956 11.5932 6.0683 11.0531 5.76966C10.4742 5.44952 10.1582 5.20174 10.1436 5.13792C10.1357 5.10383 10.2693 5.11623 10.9938 5.2145C11.7182 5.31277 13.066 5.50931 13.8796 5.65969C14.9428 5.85622 15.3321 6.03767 15.6574 6.12935C16.497 6.36604 17.161 6.80257 17.6645 6.9521C18.0461 7.06543 18.45 7.3973 19.1247 7.66084C19.2598 7.7136 19.3451 7.75294 19.3323 7.75358C19.2007 7.76016 18.9652 7.57044 18.6755 7.32328C18.296 6.9995 17.734 6.28399 17.1176 5.46932C16.5486 4.71727 16.1579 4.18202 15.7322 3.84828C15.5777 3.72712 15.5044 3.58516 15.4966 3.52135C15.4351 3.02288 16.4523 3.58474 16.779 3.65535C17.0168 3.70676 17.4154 3.82467 17.7717 4.0378C18.0873 4.22662 18.41 4.43471 18.651 4.60509C18.94 4.80944 19.6684 5.29745 20.1115 5.65416C20.3754 5.86664 20.6502 6.00875 20.9057 6.25676C21.1831 6.52607 21.5853 7.08419 21.8559 7.44792C22.0341 7.68754 22.3221 8.10519 22.6848 8.69438C23.1474 9.44603 23.4435 9.84938 23.5722 10.2625C23.7134 10.7157 23.7711 11.3392 23.8417 11.7089C23.9032 12.031 23.9549 12.3466 23.9908 12.6027C24.0255 12.8497 24.1114 13.5199 24.0408 13.978C23.9911 14.3005 24.0408 14.7 23.9064 15.1685C23.8152 15.4863 23.7149 15.7643 23.5167 16.0836C23.3381 16.3713 23.1619 16.6569 23.013 16.9066C22.845 17.1883 22.5527 17.5511 22.4597 17.8138C22.325 18.1947 22.0005 18.5848 21.7723 18.9624C21.6339 19.1912 21.4321 19.3667 21.1205 19.6077C20.8972 19.7804 20.6247 20.1027 20.2627 20.3314C20.029 20.479 19.773 20.5579 19.4263 20.7423C19.0206 20.9581 18.7529 21.1535 18.5038 21.2886C18.3979 21.346 18.3402 21.4657 18.2837 21.5789C18.2552 21.6359 18.2271 21.6921 18.353 21.721C19.0862 21.8894 19.2753 21.5942 19.3323 21.5517C19.3781 21.5175 19.0507 21.5653 18.7744 21.6289C18.468 21.6994 18.3828 22.103 18.2273 22.3306C18.0651 22.568 17.5626 22.5429 17.2208 22.6078C16.8914 22.6703 16.3578 22.8551 15.9518 23.1385C15.6664 23.3375 15.5329 23.4937 14.844 23.6909C14.2307 23.8664 13.06 24.1127 12.4036 24.2571C11.4149 24.4746 11.081 24.6708 10.804 24.7559C10.5383 24.8375 10.2157 24.841 9.9181 24.785C9.43704 24.6946 9.23723 24.4019 8.89732 24.1335C8.48204 23.8056 8.10392 23.7502 7.6566 23.6009C7.28442 23.4767 6.87022 23.4524 6.51479 23.2752C5.99659 23.0169 5.81945 22.7292 5.50783 22.5871C5.23315 22.4619 5.11071 22.1336 4.85525 21.822C4.66248 21.5869 4.50067 21.2411 4.21032 20.7238C3.9949 20.34 3.79193 20.05 3.57879 19.7092C3.39962 19.4227 3.36566 19.1702 3.18188 18.8163C2.8712 18.2179 2.92663 17.6813 2.84793 17.2505C2.62186 16.0132 2.72754 15.7388 2.64246 15.4691C2.52224 15.088 2.54291 13.7777 2.61353 12.8745C2.64251 12.5039 2.74115 12.1092 2.86857 11.6904C2.97518 11.3399 3.01002 10.9316 3.14508 10.5207C3.27923 10.1125 3.35035 9.62902 3.49946 9.13809C3.58296 8.86315 3.69153 8.63398 3.85297 8.24642C4.45982 6.78967 5.03669 6.6775 5.34256 6.3512C5.59639 6.08043 5.73267 5.85475 5.97366 5.50761C6.0894 5.3409 6.15851 5.20174 6.20126 5.21514C6.82848 5.41173 5.98962 6.63155 5.91113 7.4726C5.87615 7.8474 5.80584 8.40893 5.7767 8.96495C5.71967 10.053 5.76202 10.7164 5.70565 11.0059C5.54572 11.8273 5.43658 12.3602 5.32257 12.8709C5.25784 13.1608 5.25195 13.4531 5.12475 13.8902C4.89647 14.6746 4.88269 15.5074 4.87567 16.0385C4.86729 16.6727 4.75591 17.2661 4.69848 17.7C4.67461 17.8803 4.65552 18.1884 4.78931 18.7393C5.12508 20.1218 5.60504 20.3877 5.69778 20.7487C5.77307 21.0418 5.98791 21.3083 6.15829 21.5929C6.32848 21.8772 6.66688 22.1311 7.0791 22.4085C7.56563 22.7358 8.46553 22.6433 9.01473 22.5869C9.45054 22.5422 10.0259 22.2902 10.9702 21.8084C11.3315 21.624 11.5608 21.4104 11.8018 21.0778C12.0342 20.757 12.2415 20.4328 12.4049 20.212C12.5769 19.9795 12.7801 19.7369 13.0423 19.6375C13.5235 19.4553 13.773 19.1557 13.9787 18.9854C14.1914 18.8091 14.4392 18.6308 14.6381 18.4749C14.7583 18.3806 14.0372 18.6835 12.5861 19.3555C11.401 19.9043 10.8819 20.3882 10.7332 20.473C10.4414 20.6396 9.80643 20.7842 9.44972 20.9835C9.38737 21.0184 9.35039 21.0684 9.35677 21.1041C9.41091 21.4073 10.5211 21.464 11.1416 21.6151C11.3821 21.6736 11.6736 21.6925 12.1041 21.7988C13.3786 22.1137 14.0699 21.6231 14.4313 21.4815C14.608 21.4122 14.8603 21.1867 15.2715 20.931C15.6827 20.6753 16.2302 20.3665 16.7158 20.067C17.622 19.5081 18.2386 19.0149 18.7331 18.6331C19.7511 17.8472 20.1534 17.6813 20.5505 17.2356C20.991 16.6028 21.33 16.2506 21.67 15.8254C21.8133 15.6669 21.8975 15.6248 22.0269 15.4963" stroke="#D8D8D8" stroke-width="5" stroke-linecap="round"/>
</svg>
