<svg width="22" height="15" viewBox="0 0 22 15" fill="none" xmlns="http://www.w3.org/2000/svg">
<path d="M1.274 13.0681C1.3803 12.6128 1.41087 12.1885 1.53201 11.8223C1.655 11.4506 1.68462 10.6263 1.72249 9.78654C1.78428 8.41661 1.59337 7.89971 1.4419 6.98173C1.21433 5.60264 1.19826 5.10106 1.19027 4.48535C1.18257 3.8916 1.41087 3.04975 1.47908 2.61357C1.54367 2.2006 1.60797 1.73939 1.67687 1.42002C1.74058 1.12467 1.60934 0.931828 1.64584 1.02217C2.04369 2.00684 3.20303 1.87308 3.98208 2.31975C4.50877 2.62173 5.34833 2.99226 5.83515 3.24662C6.74645 3.72277 7.23356 4.07814 7.93277 4.54215C8.26317 4.76141 8.45175 4.90076 8.58065 4.9692C8.64468 5.0032 8.72459 4.99247 8.74079 4.93225C8.8707 4.44918 8.55852 3.08625 8.6119 2.37769C8.63712 2.04297 8.66528 1.67917 8.71045 1.35979C8.72692 1.24334 8.84596 1.2512 8.93766 1.27379C9.41691 1.39181 9.77443 1.85893 10.9655 2.3567C12.0455 2.80806 14.1138 3.60729 15.3044 4.05624C16.7394 4.59733 17.2255 4.73286 17.6954 4.94525C18.7241 5.41013 19.2339 5.63031 19.6669 5.89631C20.0111 6.10775 20.3891 6.40503 20.5356 6.67216C20.7974 7.14972 19.4511 7.46992 18.5774 8.00145C18.3146 8.16131 18.0093 8.30486 17.5606 8.58568C17.1119 8.86651 16.5247 9.27303 15.8081 9.65559C15.0916 10.0382 14.2635 10.3845 13.8068 10.5854C12.8677 10.9987 11.9676 11.5151 11.5714 11.7064C11.1704 11.9001 10.4319 12.1237 9.88393 12.4889C9.54174 12.717 9.32046 12.8847 9.00884 13.0827C8.92127 13.1384 8.78938 13.1138 8.72733 13.0836C8.46359 12.9557 8.43807 12.4458 8.37647 12.1417C8.25511 11.5425 8.39062 10.713 8.49008 10.2259C8.52814 10.0395 8.57403 9.84517 8.58909 9.60997C8.59648 9.49448 8.63426 9.38983 8.19055 9.47857C7.74684 9.56731 6.82841 9.85338 5.82831 10.2718C4.8282 10.6901 3.77426 11.2322 3.18615 11.549C2.2477 12.0547 1.91366 12.3828 1.70082 12.5731C1.62486 12.6265 1.51946 12.6867 1.42 12.7403C1.32053 12.7939 1.2302 12.8391 1.00024 12.8856" stroke="#D8D8D8" stroke-width="2" stroke-linecap="round"/>
<path d="M2.08108 2.5293C2.44719 2.73091 2.897 3.06034 3.21247 3.26364C3.57126 3.49486 3.87988 3.65394 4.10141 3.77005C4.53157 3.99551 4.66789 4.05177 5.12445 4.19004C5.4459 4.2874 5.73177 4.38164 6.06615 4.47897C6.38183 4.57084 6.67797 4.62939 6.86879 4.65549C7.26292 4.70941 7.58547 4.80918 7.92277 4.85801C8.1551 4.89164 8.49905 5.06345 9.10716 5.40829C9.3098 5.5232 9.41622 5.58954 9.49486 5.60068C9.53037 5.60571 9.55123 5.63409 9.5627 5.55275C9.60004 5.28814 9.53705 4.84203 9.4808 4.24045C9.44825 3.89233 9.46167 3.45322 9.48766 3.19783C9.52049 2.87518 9.61918 2.75499 9.64146 2.6723C9.69621 2.46905 10.0832 2.91858 10.4686 3.0762C10.7755 3.20171 11.0213 3.25655 11.2523 3.35725C11.7259 3.56374 12.1014 3.66181 12.2469 3.69163C12.4771 3.73876 12.6639 3.82653 12.7724 3.89392C12.8804 3.96107 13.2093 4.15505 13.6403 4.45118C13.8731 4.61118 14.0289 4.68137 14.1524 4.78251C14.4725 5.04464 14.9589 5.33437 15.2323 5.45397C15.3706 5.51449 15.4915 5.57447 15.6224 5.59685C15.7496 5.6186 16.1116 5.70903 16.5952 5.79521C16.8206 5.83538 17.1544 5.92639 17.6303 6.04621C17.8976 6.11353 18.0193 6.18201 18.2429 6.24524C19.045 6.47211 19.1071 6.57962 19.1262 6.57962C19.3867 6.57962 18.3013 6.73668 17.8933 6.92761C17.6554 7.03896 17.4359 7.19392 17.1882 7.35908C16.9949 7.48802 16.5979 7.71011 16.2842 7.94413C16.1917 8.01314 16.0853 8.09422 15.921 8.24352C15.6636 8.47751 15.3958 8.71639 15.1861 8.86997C14.9262 9.06028 14.683 9.13672 14.3757 9.27939C14.2779 9.32482 13.9647 9.41372 13.4817 9.60476C13.1174 9.74888 12.9049 9.79715 12.7594 9.87917C12.4975 10.0268 12.2379 10.172 11.969 10.2506C11.5879 10.3619 11.285 10.427 11.1429 10.513C10.9927 10.604 10.7458 10.7265 10.4242 10.9396C10.0746 11.1712 9.86715 11.3498 9.72168 11.4429C9.45278 11.6151 9.24475 11.7847 9.15103 11.7852C8.8424 11.7867 9.14665 11.134 9.21764 10.856C9.25098 10.7254 9.25871 10.5336 9.32621 10.2905C9.39352 10.0481 9.40114 9.66484 9.48361 9.25643C9.56165 8.86997 9.59668 8.59848 9.56304 8.19086C9.5205 7.6754 9.58903 7.2927 9.62638 7.04687C9.6557 6.85393 9.67859 6.51887 9.72359 6.18708C9.81222 5.53365 9.91891 5.13275 9.99361 4.8903C10.1234 4.46919 10.2038 4.13502 10.3158 4.0413C10.5478 3.84731 10.7738 4.06662 11.324 4.24157C11.8187 4.39883 12.7654 4.64672 13.4665 4.87342C14.1677 5.10013 14.5984 5.28577 15.0207 5.43709C15.4431 5.58842 15.8441 5.6998 16.0729 5.76089C16.3018 5.82198 16.3463 5.82941 16.3953 5.88521C16.5199 6.02729 16.5646 6.21149 16.5871 6.32749C16.6351 6.57507 16.4899 6.86359 16.3218 7.07016C16.2746 7.12818 16.2059 7.16377 15.908 7.24241C15.6101 7.32105 15.0754 7.43244 14.6998 7.5418C14.3241 7.65116 14.1236 7.75511 13.8569 7.86436C13.5903 7.97361 13.2636 8.08499 12.9133 8.25004C12.5631 8.41509 12.1992 8.63044 11.9338 8.77478C11.6684 8.91913 11.5125 8.98596 11.2985 9.1095C10.8065 9.39351 10.4452 9.63941 10.2804 9.68836C10.2148 9.70784 10.175 9.65562 10.1484 9.61793C10.0992 9.54802 10.062 9.32664 10.0319 8.71133C10.0105 8.27476 10.0611 7.58365 10.0838 7.19448C10.1233 6.51887 10.2114 6.10078 10.3273 5.84561C10.418 5.64603 10.6311 5.56726 10.8771 5.53351C11.0551 5.5091 11.346 5.52204 12.0744 5.60372C12.8027 5.6854 13.9611 5.84876 14.5727 5.94034C15.3144 6.0514 15.5511 6.11428 15.739 6.20047C15.7866 6.22228 15.8288 6.25649 15.8332 6.29779C15.8376 6.33908 15.8004 6.39106 15.733 6.4364C15.6656 6.48174 15.5691 6.51887 14.9253 6.64566C14.2816 6.77246 13.0935 6.9878 12.422 7.12101C11.7506 7.25422 11.6317 7.29878 11.5557 7.32173C11.4521 7.353 11.3822 7.15162 11.248 7.07072C10.7408 6.76503 10.7897 8.06451 10.7222 8.03515C10.324 7.86193 10.8037 7.27043 10.916 7.16163C10.9613 7.11768 11.0134 7.13451 11.0809 7.20146C11.2575 7.37657 11.3813 7.85142 11.4452 8.3576C11.4677 8.53603 11.4274 8.55933 11.2413 8.56709C10.3326 8.605 10.1232 8.48507 9.88257 8.33544C9.51711 8.1082 9.148 7.69796 8.91128 7.51412C8.66812 7.32528 8.40544 7.18042 7.94449 6.85088C7.81402 6.75761 7.6181 6.58862 7.32243 6.33019C6.94968 6.00439 6.65795 6.01753 6.39884 5.9013C6.17522 5.801 5.95207 5.76236 5.80997 5.70993C5.65856 5.65406 5.26441 5.62734 4.56179 5.52665C4.16143 5.46927 3.68096 5.34427 3.36548 5.25719C2.91009 5.13149 2.72666 5.03465 2.58107 4.95645C2.13282 4.7157 1.86596 4.4064 1.69135 4.19128C1.66165 4.15469 1.63915 4.10532 1.62384 4.06381C1.60854 4.02229 1.60854 3.98516 1.70879 3.98089C1.80903 3.97661 2.00953 4.00631 2.28731 4.08102C2.5651 4.15573 2.9141 4.27454 3.18299 4.38029C3.63688 4.55881 3.93253 4.7041 4.22393 4.81233C4.39891 4.87732 4.61928 4.98739 5.29468 5.16347C5.97007 5.33955 7.09133 5.58459 7.70608 5.71454C8.39346 5.85984 8.65723 5.91897 8.95336 6.00897C9.06304 6.04231 9.09354 6.03958 9.10142 6.06928C9.15311 6.26422 8.97428 6.45856 8.83207 7.15038C8.71124 7.73818 8.87663 8.01884 8.82825 8.1804C8.79193 8.30167 8.64441 8.34939 8.58084 8.40935C8.30016 8.67413 7.5722 8.4547 7.26673 8.51793C7.02675 8.5676 6.61969 8.67769 6.33505 8.76466C5.89545 8.89897 5.71175 9.03187 5.49956 9.16249C5.04719 9.44096 4.65416 9.52713 4.56821 9.57202C4.46434 9.62627 4.19828 9.78838 3.80911 10.0654C3.23356 10.475 3.01176 10.5692 2.79113 10.7563C2.4957 11.0068 2.33648 11.2375 2.2728 11.2189C2.20617 11.1995 2.24579 10.8354 2.2908 10.3261C2.34783 9.68061 2.36595 9.33294 2.38846 8.93106C2.40761 8.58903 2.39611 7.96483 2.39239 7.6138C2.38805 7.20324 2.3142 6.9788 2.21677 6.65703C2.12651 6.35895 2.15601 6.13769 2.18583 6.04397C2.19825 6.00492 2.24534 6.00222 2.66545 6.16547C3.08556 6.32873 3.88753 6.66288 4.43803 6.86472C4.98854 7.06656 5.26329 7.12596 5.76868 7.18256C6.27407 7.23915 7.00177 7.29113 7.40264 7.32904C7.80351 7.36696 7.85549 7.38923 7.90083 7.40442C7.94618 7.41961 7.9833 7.42704 7.91332 7.43458C7.84334 7.44211 7.66513 7.44954 6.99041 7.54619C6.31569 7.64283 5.14988 7.82847 4.53074 7.9241C3.87532 8.02534 3.79167 8.03459 3.72045 8.04224C3.41649 8.07489 3.46854 7.21822 3.50218 7.04957C3.51536 6.98351 3.54325 6.9626 3.577 6.95112C3.61075 6.93965 3.65531 6.93965 3.68569 6.9545C3.74272 6.98238 3.73879 7.35638 3.70526 7.97766C3.67554 8.52842 3.5887 9.00014 3.60355 9.30414C3.6184 9.3928 3.64811 9.34824 3.67826 9.31787C3.70841 9.28749 3.73811 9.27264 3.76872 9.25733" stroke="#D8D8D8" stroke-width="3" stroke-linecap="round"/>
</svg>
