<svg width="29" height="28" viewBox="0 0 29 28" fill="none" xmlns="http://www.w3.org/2000/svg">
<path d="M3.189 1.23681C3.26805 1.23681 3.34711 1.23681 4.47878 1.23681C5.61046 1.23681 7.79235 1.23681 8.9638 1.221C10.1352 1.20519 10.2301 1.17357 10.7217 1.15728C11.2132 1.14099 12.0987 1.14099 12.6259 1.13308C13.1532 1.12518 13.2955 1.10937 13.9854 1.10122C14.6753 1.09308 15.9086 1.09308 16.5913 1.07727C17.2741 1.06145 17.3689 1.02983 18.485 1.01354C19.6011 0.997254 21.7356 0.997254 22.8747 1.00516C24.2545 1.01473 24.572 1.15632 24.9871 1.21262C25.4013 1.26877 25.6739 1.4275 26.0017 1.50009C26.4031 1.58901 26.7117 2.2075 26.9683 2.57714C27.274 3.01763 27.3355 3.34397 27.6628 3.997C27.8624 4.39533 27.8951 4.81198 27.8956 6.11087C27.8958 6.62675 27.7677 7.03221 27.6882 7.40808C27.5805 7.91671 27.5128 8.59796 27.4246 8.95706C27.3177 9.39247 27.3365 9.96919 27.2967 10.6562C27.2338 11.743 27.3997 12.1578 27.4402 13.3221C27.4622 13.954 27.624 14.7738 27.7035 15.67C27.8535 17.3603 27.8156 17.7165 27.8951 18.3149C27.9616 18.8153 27.7524 19.2018 27.6802 19.8711C27.5657 20.9346 27.3681 21.5149 27.3446 22.0525C27.315 22.7321 27.4323 23.304 27.6549 24.0085C27.7389 24.2746 27.8156 24.4572 27.8077 24.6244C27.7853 25.0982 27.2905 25.5903 26.9304 25.8148C26.6053 26.0175 26.2039 26.2304 25.7492 26.4853C25.5964 26.5709 25.421 26.55 24.8503 26.6293C24.3749 26.6953 23.5208 26.8034 21.4841 26.8605C19.4473 26.9175 16.2536 26.9175 14.5371 26.8938C12.8207 26.87 12.6784 26.8226 12.5339 26.7824C12.3895 26.7421 12.2472 26.7105 11.0987 26.6784C9.95029 26.6463 7.80002 26.6147 6.30493 26.5905C4.80985 26.5663 4.03512 26.5505 3.55696 26.5107C2.64046 26.4345 2.34384 26.1039 2.13566 25.9041C1.91106 25.6886 1.67307 25.323 1.43304 24.8748C1.27276 24.5755 1.2572 24.2996 1.16904 23.9244C1.09932 23.6277 1.1288 23.3097 1.256 22.9264C1.40628 22.4736 1.52742 22.0487 1.63954 21.4033C1.87924 20.0235 1.63954 19.6531 1.61606 19.0784C1.58859 18.4061 1.49676 18.0241 1.49604 17.6957C1.49504 17.2396 1.4958 16.8254 1.52 16.506C1.56702 15.8853 1.65487 15.022 1.68793 14.6454C1.71881 14.2935 1.57629 13.9516 1.53629 13.4799C1.50203 13.0761 1.32044 12.5631 1.16138 12.0749C0.925978 11.3524 1.16138 10.9332 1.14461 10.5729C1.127 10.1946 1.03393 9.75167 1.00087 8.38883C0.987592 7.84129 1.1288 7.46725 1.21624 7.16301C1.3319 6.76058 1.33577 6.30108 1.37626 5.86987C1.43143 5.28226 1.44789 4.41623 1.47209 3.20598C1.47856 2.88225 1.51209 2.73884 1.54371 2.60325C1.60669 2.33321 1.97396 2.22763 2.47631 1.78157C2.67634 1.65269 2.83685 1.58848 2.98825 1.54057C3.0606 1.52428 3.12384 1.52428 3.189 1.52428" stroke="#EDEDED" stroke-width="2" stroke-linecap="round"/>
<path d="M6.97388 6.93819C7.03712 6.93819 7.40173 6.93819 7.93642 6.91448C8.21141 6.90228 9.13709 6.79446 10.5021 6.83398C10.9989 6.84837 11.0924 6.95256 11.1649 7.04072C11.4148 7.34417 11.5408 7.68657 11.8194 8.10987C12.3701 8.94648 12.5623 9.28395 12.7863 9.65981C12.9879 9.9982 13.1851 10.132 13.6796 10.5855C14.0022 10.8814 14.0648 11.2004 14.4304 11.5681C14.8839 12.0243 15.2118 12.6368 15.581 13.0615C15.8537 13.3754 16.4086 13.9927 16.8267 14.5466C17.0823 14.8852 17.3688 15.2882 17.697 15.5774C17.9732 15.8207 18.1996 16.1986 18.4161 16.5114C18.6706 16.8791 18.8866 17.2689 19.3174 17.7564C19.6974 18.1865 19.9407 18.5156 20.1568 18.8589C20.3744 19.2046 20.7705 19.5524 21.0113 19.8336C21.2687 20.1344 21.4902 20.5758 21.6899 20.8474C21.8154 21.018 21.9535 21.1991 22.0337 21.3268C22.1733 21.5489 20.8913 21.3596 19.8911 21.2801C18.6366 21.1803 17.7545 21.1373 17.6352 20.8982C17.405 20.437 17.0363 20.227 16.916 19.9314C16.7734 19.5807 16.2534 19.5246 16.0857 19.2127C15.935 18.9323 15.5846 18.3613 15.0329 17.5851C14.6006 16.977 14.0341 16.2034 13.8339 15.9226C13.6324 15.6402 13.5224 15.3563 13.3468 15.1318C13.1313 14.8563 12.8201 14.4622 12.5884 14.142C12.3908 13.8688 12.1972 13.5193 11.9416 13.2079C11.6694 12.8763 11.3195 12.3235 11.0155 12.0494C10.7849 11.8415 10.6803 11.5387 10.4959 11.2991C10.343 11.1006 10.2012 10.773 9.98512 10.453C9.70663 10.0405 9.51415 9.73432 9.27459 9.47056C9.00349 9.17208 8.8271 8.87191 8.54825 8.52886C8.17719 8.07237 8.06051 7.81785 7.82143 7.56991C7.64656 7.46618 7.46976 7.38569 7.32627 7.31406C7.26183 7.27405 7.21439 7.22662 7.11761 7.03401" stroke="#EDEDED" stroke-width="2" stroke-linecap="round"/>
<path d="M7.59668 21.3596C7.6283 21.3596 7.73946 21.3596 7.91482 21.3122C8.43752 21.1708 8.72931 20.4033 8.97726 20.0433C9.13481 19.8145 9.22472 19.5879 9.62334 19.1892C9.89642 18.9162 10.1973 18.5194 10.4707 18.1666C10.6786 17.8981 10.9179 17.5919 11.181 17.3041C11.4296 17.0322 11.7794 16.7774 12.0196 16.5294C12.3074 16.2978 12.5306 16.0108 12.7225 15.6993C12.7707 15.6112 12.8181 15.5163 12.9149 15.4186" stroke="#EDEDED" stroke-width="2" stroke-linecap="round"/>
<path d="M15.5979 12.4002C15.6932 12.2732 15.9793 11.8913 16.2756 11.6027C16.6848 11.2041 17.0343 10.7568 17.3455 10.3735C17.677 9.96521 17.9437 9.52738 18.1844 9.24686C18.3658 9.03548 18.5512 8.68126 18.7752 8.41631C19.0126 8.13542 19.2382 7.94533 19.6369 7.4195C19.7336 7.29038 19.7969 7.21133 19.8453 7.13898C19.8937 7.06663 19.9253 7.00339 19.9579 6.93823" stroke="#EDEDED" stroke-width="2" stroke-linecap="round"/>
<path d="M9.60913 8.95056H12.0047" stroke="#EDEDED" stroke-linecap="round"/>
<path d="M10.8547 11.0108C10.9812 10.995 11.1077 10.9792 11.584 10.971C12.0602 10.9629 12.8824 10.9629 13.7294 10.9629" stroke="#EDEDED" stroke-linecap="round"/>
<path d="M12.4358 13.2626C12.4674 13.2626 12.499 13.2626 13.0055 13.2626C13.5119 13.2626 14.4922 13.2626 15.598 13.3105" stroke="#EDEDED" stroke-linecap="round"/>
<path d="M14.0168 15.4186H16.6999" stroke="#EDEDED" stroke-linecap="round"/>
<path d="M15.646 17.7185H19.0477" stroke="#EDEDED" stroke-linecap="round"/>
<path d="M16.9875 19.3474C17.3196 19.379 17.6516 19.4107 18.0361 19.4269C18.4206 19.4432 18.8475 19.4432 19.1069 19.4511C19.3664 19.459 19.4454 19.4749 19.6706 19.587" stroke="#EDEDED" stroke-linecap="round"/>
</svg>
